<?xml version="1.0" encoding="UTF-8" standalone="no"?>
<svg
   viewBox="0 0 24 24"
   version="1.1"
   id="svg75"
   sodipodi:docname="chat.svg"
   inkscape:version="1.1.2 (0a00cf5339, 2022-02-04)"
   xmlns:inkscape="http://www.inkscape.org/namespaces/inkscape"
   xmlns:sodipodi="http://sodipodi.sourceforge.net/DTD/sodipodi-0.dtd"
   xmlns="http://www.w3.org/2000/svg"
   xmlns:svg="http://www.w3.org/2000/svg">
  <defs
     id="defs79" />
  <sodipodi:namedview
     id="namedview77"
     pagecolor="#ffffff"
     bordercolor="#666666"
     borderopacity="1.0"
     inkscape:pageshadow="2"
     inkscape:pageopacity="0.0"
     inkscape:pagecheckerboard="0"
     showgrid="false"
     inkscape:zoom="31.875"
     inkscape:cx="11.984314"
     inkscape:cy="12"
     inkscape:window-width="1920"
     inkscape:window-height="1016"
     inkscape:window-x="1920"
     inkscape:window-y="27"
     inkscape:window-maximized="1"
     inkscape:current-layer="svg75" />
  <path
     d="M12,3C17.5,3 22,6.58 22,11C22,15.42 17.5,19 12,19C10.76,19 9.57,18.82 8.47,18.5C5.55,21 2,21 2,21C4.33,18.67 4.7,17.1 4.75,16.5C3.05,15.07 2,13.13 2,11C2,6.58 6.5,3 12,3Z"
     id="path73" />
  <path
     style="opacity:0.91;fill:#9205d1;stroke-width:0;stroke-opacity:0.803922"
     d="M 2.3723698,20.634868 C 3.5759357,19.386913 4.4325241,18.024873 4.69048,16.948898 4.7943487,16.515645 4.7918751,16.507108 4.4837091,16.235294 3.7927823,15.625869 3.1403052,14.767973 2.7157616,13.910744 1.9255383,12.315142 1.8059607,10.552871 2.3753622,8.8941176 2.7228089,7.881952 3.2916628,6.9774394 4.109256,6.1371197 4.8980754,5.3263737 5.6813669,4.7568993 6.7294118,4.2321944 7.8958554,3.6482131 9.079696,3.2952056 10.52549,3.1002479 c 0.608948,-0.082113 2.340072,-0.082113 2.94902,0 2.261429,0.3049417 4.126979,1.075423 5.675106,2.3438466 0.429904,0.3522326 1.085381,1.0273875 1.386131,1.4277446 1.009176,1.3434124 1.47962,2.7656774 1.431627,4.3281609 -0.03131,1.019443 -0.230926,1.800542 -0.701523,2.745098 -1.123288,2.2546 -3.464887,3.980246 -6.36389,4.689883 -1.940211,0.474936 -3.947495,0.462842 -5.98202,-0.03604 L 8.4594899,18.486029 8.1983724,18.696809 C 6.949706,19.70476 5.1933688,20.492602 3.4823529,20.81228 3.0604478,20.891107 2.4091925,20.972549 2.2007575,20.972549 H 2.0467003 Z"
     id="path243" />
</svg>
