<?xml version="1.0" encoding="UTF-8" standalone="no"?>
<svg
   viewBox="0 0 24 24"
   version="1.1"
   id="svg163"
   sodipodi:docname="code.svg"
   inkscape:version="1.1.2 (0a00cf5339, 2022-02-04)"
   xmlns:inkscape="http://www.inkscape.org/namespaces/inkscape"
   xmlns:sodipodi="http://sodipodi.sourceforge.net/DTD/sodipodi-0.dtd"
   xmlns="http://www.w3.org/2000/svg"
   xmlns:svg="http://www.w3.org/2000/svg">
  <defs
     id="defs167" />
  <sodipodi:namedview
     id="namedview165"
     pagecolor="#ffffff"
     bordercolor="#666666"
     borderopacity="1.0"
     inkscape:pageshadow="2"
     inkscape:pageopacity="0.0"
     inkscape:pagecheckerboard="0"
     showgrid="false"
     inkscape:zoom="29.958333"
     inkscape:cx="11.98331"
     inkscape:cy="12"
     inkscape:window-width="1920"
     inkscape:window-height="1016"
     inkscape:window-x="1920"
     inkscape:window-y="27"
     inkscape:window-maximized="1"
     inkscape:current-layer="svg163" />
  <path
     d="M12.89,3L14.85,3.4L11.11,21L9.15,20.6L12.89,3M19.59,12L16,8.41V5.58L22.42,12L16,18.41V15.58L19.59,12M1.58,12L8,5.58V8.41L4.41,12L8,15.58V18.41L1.58,12Z"
     id="path161" />
  <path
     style="opacity:0.91;fill:#9205d1;stroke-width:0;stroke-opacity:0.803922"
     d="M 4.7899861,15.180482 1.6022253,12.003994 4.798331,8.8059132 7.9944367,5.6078322 v 1.3851217 1.3851217 l -1.8108484,1.8131354 -1.8108484,1.813135 1.8112199,1.79893 1.8112199,1.79893 -0.00872,1.377382 -0.00872,1.377381 z"
     id="path324" />
  <path
     style="opacity:0.91;fill:#9205d1;stroke-width:0;stroke-opacity:0.803922"
     d="M 10.123573,20.782667 C 9.6147642,20.677838 9.1929115,20.585279 9.1861221,20.57698 9.1738914,20.562031 12.889634,3.0547334 12.909187,3.0351797 c 0.01453,-0.01453 1.800531,0.347363 1.864053,0.3777081 0.04596,0.021956 -0.183722,1.1377004 -1.774585,8.6204922 -2.124224,9.99151 -1.899005,8.946496 -1.927335,8.942821 -0.01245,-0.0016 -0.438939,-0.08871 -0.947747,-0.193534 z"
     id="path363" />
  <path
     style="opacity:0.91;fill:#9205d1;stroke-width:0;stroke-opacity:0.803922"
     d="M 16.005563,16.981771 V 15.616855 L 17.816412,13.809043 19.62726,12.001231 17.816412,10.189653 16.005563,8.3780756 V 6.9929539 5.6078322 l 3.196061,3.1960611 3.196062,3.1960617 -3.104267,3.106455 c -1.707347,1.708551 -3.145575,3.136566 -3.196062,3.173367 l -0.09179,0.06691 z"
     id="path402" />
</svg>
