<?xml version="1.0" encoding="UTF-8" standalone="no"?>
<svg
   height="48"
   viewBox="0 -960 960 960"
   width="48"
   version="1.1"
   id="svg4"
   sodipodi:docname="key.svg"
   inkscape:version="1.2.2 (b0a8486541, 2022-12-01)"
   xmlns:inkscape="http://www.inkscape.org/namespaces/inkscape"
   xmlns:sodipodi="http://sodipodi.sourceforge.net/DTD/sodipodi-0.dtd"
   xmlns="http://www.w3.org/2000/svg"
   xmlns:svg="http://www.w3.org/2000/svg">
  <defs
     id="defs8" />
  <sodipodi:namedview
     id="namedview6"
     pagecolor="#ffffff"
     bordercolor="#000000"
     borderopacity="0.25"
     inkscape:showpageshadow="2"
     inkscape:pageopacity="0.0"
     inkscape:pagecheckerboard="0"
     inkscape:deskcolor="#d1d1d1"
     showgrid="false"
     inkscape:zoom="4.9166667"
     inkscape:cx="23.898305"
     inkscape:cy="24.101695"
     inkscape:window-width="1504"
     inkscape:window-height="942"
     inkscape:window-x="0"
     inkscape:window-y="0"
     inkscape:window-maximized="1"
     inkscape:current-layer="svg4" />
  <path
     d="M280-412q-28 0-48-20t-20-48q0-28 20-48t48-20q28 0 48 20t20 48q0 28-20 48t-48 20Zm0 172q-100 0-170-70T40-480q0-100 70-170t170-70q72 0 126 34t85 103h356l113 113-167 153-88-64-88 64-75-60h-51q-25 60-78.5 98.5T280-240Zm0-60q58 0 107-38.5t63-98.5h114l54 45 88-63 82 62 85-79-51-51H450q-12-56-60-96.5T280-660q-75 0-127.5 52.5T100-480q0 75 52.5 127.5T280-300Z"
     id="path2"
     style="fill:#ffffff" />
</svg>
