<?xml version="1.0" encoding="UTF-8" standalone="no"?>
<svg
   viewBox="0 0 384 512"
   version="1.1"
   id="svg183"
   sodipodi:docname="lines-leaning.svg"
   inkscape:version="1.1.2 (0a00cf5339, 2022-02-04)"
   xmlns:inkscape="http://www.inkscape.org/namespaces/inkscape"
   xmlns:sodipodi="http://sodipodi.sourceforge.net/DTD/sodipodi-0.dtd"
   xmlns="http://www.w3.org/2000/svg"
   xmlns:svg="http://www.w3.org/2000/svg">
  <defs
     id="defs187" />
  <sodipodi:namedview
     id="namedview185"
     pagecolor="#ffffff"
     bordercolor="#666666"
     borderopacity="1.0"
     inkscape:pageshadow="2"
     inkscape:pageopacity="0.0"
     inkscape:pagecheckerboard="0"
     showgrid="false"
     inkscape:zoom="1.4042969"
     inkscape:cx="192.26704"
     inkscape:cy="256"
     inkscape:window-width="1920"
     inkscape:window-height="1016"
     inkscape:window-x="1920"
     inkscape:window-y="27"
     inkscape:window-maximized="1"
     inkscape:current-layer="svg183" />
  <!--! Font Awesome Pro 6.4.0 by @fontawesome - https://fontawesome.com License - https://fontawesome.com/license (Commercial License) Copyright 2023 Fonticons, Inc. -->
  <path
     d="m 191.90764,242.98416 c 0.39995,-1.19986 -0.24997,-2.49256 -1.44269,-2.89251 -1.19272,-0.39996 -2.49256,0.24997 -2.89252,1.44268 l -9.14178,27.42534 c -0.39995,1.19986 0.24997,2.49256 1.44269,2.89252 1.19272,0.39995 2.49256,-0.24997 2.89252,-1.44269 z m 5.06369,-2.97822 c -1.24272,-0.20712 -2.42115,0.63564 -2.62827,1.87835 l -4.57089,27.42534 c -0.20711,1.24271 0.63564,2.42114 1.87835,2.62826 1.24271,0.20712 2.42115,-0.63564 2.62827,-1.87835 l 4.57089,-27.42534 c 0.20711,-1.24271 -0.63564,-2.42114 -1.87835,-2.62826 z m 6.4778,-0.0286 c -1.26413,0 -2.28544,1.02131 -2.28544,2.28545 v 27.42534 c 0,1.26413 1.02131,2.28544 2.28544,2.28544 1.26414,0 2.28545,-1.02131 2.28545,-2.28544 v -27.42534 c 0,-1.26414 -1.02131,-2.28545 -2.28545,-2.28545 z"
     id="path181"
     style="stroke-width:0.999996" />
</svg>
