<?xml version="1.0" encoding="UTF-8" standalone="no"?>
<!-- Created with Inkscape (http://www.inkscape.org/) -->

<svg
   width="8.4665728mm"
   height="8.4650621mm"
   viewBox="0 0 8.4665728 8.4650621"
   version="1.1"
   id="svg672"
   inkscape:version="1.1.2 (0a00cf5339, 2022-02-04)"
   sodipodi:docname="person-gear.svg"
   xmlns:inkscape="http://www.inkscape.org/namespaces/inkscape"
   xmlns:sodipodi="http://sodipodi.sourceforge.net/DTD/sodipodi-0.dtd"
   xmlns="http://www.w3.org/2000/svg"
   xmlns:svg="http://www.w3.org/2000/svg">
  <sodipodi:namedview
     id="namedview674"
     pagecolor="#ffffff"
     bordercolor="#666666"
     borderopacity="1.0"
     inkscape:pageshadow="2"
     inkscape:pageopacity="0.0"
     inkscape:pagecheckerboard="0"
     inkscape:document-units="mm"
     showgrid="false"
     inkscape:zoom="0.64052329"
     inkscape:cx="-49.959151"
     inkscape:cy="406.69872"
     inkscape:window-width="1920"
     inkscape:window-height="1016"
     inkscape:window-x="1920"
     inkscape:window-y="27"
     inkscape:window-maximized="1"
     inkscape:current-layer="layer1" />
  <defs
     id="defs669" />
  <g
     inkscape:label="Layer 1"
     inkscape:groupmode="layer"
     id="layer1"
     transform="translate(-118.03649,-40.793105)">
    <path
       d="m 123.6673,42.709259 a 1.8142857,1.8142857 0 1 1 -3.61716,-0.287547 1.8142857,1.8142857 0 0 1 3.61716,0.287547 z m -1.90443,1.061947 a 1.209524,1.209524 0 1 0 0.1917,-2.41144 1.209524,1.209524 0 0 0 -0.1917,2.41144 z m -0.18114,4.232289 a 2.7057048,2.7057048 0 0 1 -0.0899,-0.616246 l -3.03058,-0.240917 c 0.0124,-0.148256 0.14006,-0.587042 0.58132,-0.963285 0.42432,-0.361818 1.19661,-0.71296 2.57656,-0.60326 0.15675,0.01246 0.30522,0.02968 0.44491,0.05054 0.1526,-0.194743 0.33017,-0.368087 0.5287,-0.514894 -0.27823,-0.06398 -0.58568,-0.111472 -0.92569,-0.138501 -3.0143,-0.239623 -3.76093,1.521033 -3.80885,2.123893 -0.0479,0.602859 0.55493,0.650783 0.55493,0.650783 z m 2.40596,-2.563019 c 0.13789,-0.360926 0.66117,-0.319328 0.74092,0.0589 l 0.0188,0.09128 a 0.38704763,0.38704763 0 0 0 0.53693,0.274431 l 0.0855,-0.03809 c 0.35286,-0.157589 0.6936,0.241992 0.48284,0.56558 l -0.0518,0.07839 a 0.38704763,0.38704763 0 0 0 0.1862,0.572937 l 0.0877,0.03426 c 0.36032,0.137844 0.31872,0.661126 -0.0589,0.740914 l -0.0925,0.01873 a 0.38704763,0.38704763 0 0 0 -0.27323,0.537023 l 0.0381,0.08554 c 0.15699,0.352821 -0.2426,0.693551 -0.56619,0.482794 l -0.0783,-0.05173 a 0.38704763,0.38704763 0 0 0 -0.57295,0.186201 l -0.0343,0.08767 c -0.13784,0.360323 -0.66112,0.318725 -0.74091,-0.0589 l -0.0187,-0.09248 a 0.38704763,0.38704763 0 0 0 -0.53702,-0.273225 l -0.0855,0.0381 c -0.35282,0.156986 -0.69356,-0.242596 -0.48279,-0.566183 l 0.0518,-0.07839 a 0.38704763,0.38704763 0 0 0 -0.18619,-0.572938 l -0.0871,-0.03422 c -0.36093,-0.137893 -0.31933,-0.661175 0.0589,-0.740915 l 0.0913,-0.01882 a 0.38704763,0.38704763 0 0 0 0.27443,-0.536927 l -0.0381,-0.08554 c -0.1576,-0.35287 0.24199,-0.693599 0.56558,-0.482842 l 0.0783,0.05173 a 0.38704763,0.38704763 0 0 0 0.57294,-0.186202 z m 1.12876,1.934008 a 0.907145,0.907145 0 1 0 -1.80859,-0.143774 0.907145,0.907145 0 0 0 1.80859,0.143774 z"
       id="path567"
       style="fill:#ffffff;stroke-width:0.264583" />
  </g>
</svg>
