<?xml version="1.0" encoding="UTF-8" standalone="no"?>
<svg
   width="16"
   height="16"
   fill="currentColor"
   class="bi bi-person-gear"
   viewBox="0 0 16 16"
   version="1.1"
   id="svg275"
   sodipodi:docname="person-gear.svg"
   inkscape:version="1.1.2 (0a00cf5339, 2022-02-04)"
   xmlns:inkscape="http://www.inkscape.org/namespaces/inkscape"
   xmlns:sodipodi="http://sodipodi.sourceforge.net/DTD/sodipodi-0.dtd"
   xmlns="http://www.w3.org/2000/svg"
   xmlns:svg="http://www.w3.org/2000/svg">
  <defs
     id="defs279" />
  <sodipodi:namedview
     id="namedview277"
     pagecolor="#ffffff"
     bordercolor="#666666"
     borderopacity="1.0"
     inkscape:pageshadow="2"
     inkscape:pageopacity="0.0"
     inkscape:pagecheckerboard="0"
     showgrid="false"
     inkscape:zoom="44.9375"
     inkscape:cx="7.9888734"
     inkscape:cy="8"
     inkscape:window-width="1920"
     inkscape:window-height="1016"
     inkscape:window-x="1920"
     inkscape:window-y="27"
     inkscape:window-maximized="1"
     inkscape:current-layer="svg275" />
  <path
     d="m 13.571428,-0.1428575 a 6.8571429,6.8571429 0 1 1 -13.7142855,0 6.8571429,6.8571429 0 0 1 13.7142855,0 z M 6.7142854,4.4285711 a 4.5714286,4.5714286 0 1 0 0,-9.1428572 4.5714286,4.5714286 0 0 0 0,9.1428572 z M 7.2994283,20.428571 A 10.226286,10.226286 0 0 1 6.7759997,18.133714 H -4.7142861 c 0.00229,-0.562286 0.352,-2.253714 1.9017143,-3.803429 1.4902857,-1.490285 4.2948572,-3.044571 9.5268572,-3.044571 0.5942857,0 1.1588572,0.02057 1.6914286,0.05714 C 8.9222854,10.563428 9.5394283,9.8571426 10.243428,9.2445711 9.1759997,9.0868568 8.0034283,8.9999997 6.7142854,8.9999997 c -11.4285715,0 -13.7142858,6.8571433 -13.7142858,9.1428573 0,2.285714 2.2857143,2.285714 2.2857143,2.285714 z M 15.596571,10.051428 c 0.411429,-1.4011426 2.395429,-1.4011426 2.809143,0 l 0.09829,0.338286 a 1.4628572,1.4628572 0 0 0 2.105143,0.873143 L 20.92,11.093714 c 1.282285,-0.699429 2.685714,0.704 1.988571,1.986286 l -0.171428,0.310857 a 1.4628572,1.4628572 0 0 0 0.873143,2.102857 l 0.340571,0.102857 c 1.398857,0.411429 1.398857,2.395429 0,2.809143 L 23.608,18.504 a 1.4628572,1.4628572 0 0 0 -0.868572,2.105143 L 22.908571,20.92 c 0.697143,1.282285 -0.706286,2.685714 -1.988571,1.988571 l -0.310857,-0.171428 a 1.4628572,1.4628572 0 0 0 -2.102858,0.873143 l -0.102857,0.340571 c -0.411428,1.398857 -2.395428,1.398857 -2.809143,0 L 15.496,23.608 A 1.4628572,1.4628572 0 0 0 13.390857,22.739428 L 13.08,22.908571 C 11.797714,23.605714 10.394285,22.202285 11.091428,20.92 l 0.171429,-0.310857 A 1.4628572,1.4628572 0 0 0 10.389714,18.506285 L 10.051428,18.403428 C 8.6502854,17.992 8.6502854,16.008 10.051428,15.594285 L 10.389714,15.496 a 1.4628572,1.4628572 0 0 0 0.873143,-2.105143 L 11.093714,13.08 c -0.699429,-1.282286 0.704,-2.685715 1.986286,-1.988572 l 0.310857,0.171429 a 1.4628572,1.4628572 0 0 0 2.102857,-0.873143 z M 20.428571,17 a 3.4285715,3.4285715 0 1 0 -6.857143,0 3.4285715,3.4285715 0 0 0 6.857143,0 z"
     id="path273"
     style="stroke-width:1;fill:#ffffff" />
</svg>
