<?xml version="1.0" encoding="UTF-8" standalone="no"?>
<svg
   id="safe_mode"
   data-name="safe mode"
   viewBox="0 0 979.46997 763.15906"
   version="1.1"
   sodipodi:docname="blind_mode.svg"
   width="979.46997"
   height="763.15906"
   inkscape:version="1.2.2 (b0a8486541, 2022-12-01)"
   xmlns:inkscape="http://www.inkscape.org/namespaces/inkscape"
   xmlns:sodipodi="http://sodipodi.sourceforge.net/DTD/sodipodi-0.dtd"
   xmlns="http://www.w3.org/2000/svg"
   xmlns:svg="http://www.w3.org/2000/svg">
  <sodipodi:namedview
     id="namedview322"
     pagecolor="#ffffff"
     bordercolor="#000000"
     borderopacity="0.25"
     inkscape:showpageshadow="2"
     inkscape:pageopacity="0.0"
     inkscape:pagecheckerboard="0"
     inkscape:deskcolor="#d1d1d1"
     showgrid="false"
     inkscape:zoom="0.21851852"
     inkscape:cx="505.67797"
     inkscape:cy="368.38983"
     inkscape:window-width="1504"
     inkscape:window-height="942"
     inkscape:window-x="0"
     inkscape:window-y="0"
     inkscape:window-maximized="1"
     inkscape:current-layer="safe_mode" />
  <defs
     id="defs13">
    <style
       id="style2">.cls-1,.cls-11,.cls-12,.cls-13,.cls-14,.cls-16,.cls-17,.cls-18,.cls-19,.cls-2,.cls-20,.cls-21,.cls-22,.cls-24,.cls-25,.cls-26,.cls-27{fill:none;}.cls-11,.cls-12,.cls-18,.cls-19,.cls-2,.cls-20{stroke:#0870d9;}.cls-11,.cls-13,.cls-17,.cls-18,.cls-19,.cls-2,.cls-20,.cls-24,.cls-25,.cls-26{stroke-miterlimit:10;}.cls-2{stroke-width:9.36px;}.cls-3{fill:#3c3c3b;}.cls-4{fill:#fff;}.cls-5{clip-path:url(#clip-path);}.cls-6{fill:#02c8f9;}.cls-7{fill:#8640ff;}.cls-8{fill:#ff4aed;}.cls-9{fill:#0870d9;}.cls-10{clip-path:url(#clip-path-2);}.cls-11{stroke-width:2.01px;}.cls-12,.cls-14,.cls-16,.cls-21,.cls-22,.cls-27{stroke-linecap:square;stroke-linejoin:bevel;}.cls-12{stroke-width:2.48px;}.cls-13,.cls-14,.cls-16,.cls-17,.cls-22,.cls-27{stroke:#fff;}.cls-13{stroke-width:0.96px;}.cls-14{stroke-width:1.68px;}.cls-15{fill:#b107df;}.cls-16{stroke-width:0.93px;}.cls-17{stroke-width:4.44px;}.cls-18{stroke-width:1.63px;}.cls-19{stroke-width:0.33px;}.cls-20{stroke-width:1.01px;}.cls-21,.cls-24,.cls-25,.cls-26{stroke:#3c3c3b;stroke-width:1.9px;}.cls-22{stroke-width:1.29px;}.cls-23{clip-path:url(#clip-path-3);}.cls-25{stroke-dasharray:6.18 6.18;}.cls-26{stroke-dasharray:6.25 6.25;}.cls-27{stroke-width:0.72px;}</style>
    <clipPath
       id="clip-path">
      <rect
         class="cls-1"
         x="625.58002"
         y="480.85001"
         width="212.00999"
         height="319.67001"
         transform="rotate(-138.88,731.58441,640.68922)"
         id="rect4" />
    </clipPath>
    <clipPath
       id="clip-path-2">
      <rect
         class="cls-1"
         x="-21.370001"
         y="105.84"
         width="555.53003"
         height="806.52002"
         id="rect7" />
    </clipPath>
    <clipPath
       id="clip-path-3">
      <polygon
         class="cls-1"
         points="551.38,377.42 693.65,343.3 654.66,406.89 512.39,441.02 "
         id="polygon10" />
    </clipPath>
  </defs>
  <path
     class="cls-2"
     d="m 636.36,588.09906 a 185.35,185.35 0 0 0 8.64,79.57"
     id="path15" />
  <path
     class="cls-2"
     d="m 618.2,593.18906 a 185.47,185.47 0 0 0 8.65,79.57"
     id="path17" />
  <path
     class="cls-2"
     d="m 600.33,596.67906 a 185.44,185.44 0 0 0 8.65,79.56"
     id="path19" />
  <rect
     class="cls-3"
     x="-963.98279"
     y="-122.68949"
     width="262.51001"
     height="423.51001"
     transform="rotate(-138.88)"
     id="rect21" />
  <rect
     class="cls-4"
     x="-939.98804"
     y="-51.213718"
     width="212.00999"
     height="319.67001"
     transform="rotate(-138.88)"
     id="rect23" />
  <circle
     class="cls-4"
     cx="571.45001"
     cy="613.54901"
     r="26.5"
     id="circle25" />
  <g
     class="cls-5"
     clip-path="url(#clip-path)"
     id="g29"
     transform="translate(-31.88,-174.06094)">
    <path
       class="cls-6"
       d="m 888.54,549.6 c 0,0 -160.21,-23.93 -143.28,14.4 16.93,38.33 44.84,40.14 42.48,62.7 -2.36,22.56 -92.23,-36.92 -111.36,-20.37 -19.13,16.55 30.07,77 25.88,89 -4.19,12 -98,-71.75 -106.79,-36.23 -8.79,35.52 -58.83,19.77 -58.83,19.77 l 3,29.72 c 0,0 64.82,32.16 71.43,6 6.61,-26.16 124.73,107.47 123.32,24.47 -1.41,-83 -37.85,-108.59 -37.85,-108.59 0,0 151.86,94.06 133.69,28.14 -18.17,-65.92 -56.74,-97.46 -56.74,-97.46 0,0 60.53,50.89 84.15,33.12 23.62,-17.77 60.67,13.92 64.63,7.36 3.96,-6.56 6.61,-10.63 6.61,-10.63"
       id="path27" />
  </g>
  <ellipse
     class="cls-6"
     cx="272.75543"
     cy="774.67401"
     rx="5.9400001"
     ry="13.79"
     transform="rotate(-39.91)"
     id="ellipse31" />
  <polygon
     class="cls-7"
     points="441.44,727.45 479.65,727.8 758.16,408.76 708.42,410.14 "
     id="polygon33"
     transform="translate(-31.88,-174.06094)" />
  <polygon
     class="cls-8"
     points="441.44,727.45 664.44,903.65 677.4,900.44 479.65,727.8 "
     id="polygon35"
     transform="translate(-31.88,-174.06094)" />
  <path
     class="cls-9"
     d="m 637.47,738.29906 h -88.12 l 16.14,-40.59 h 41.14 l 1.42,-3.62 c 1,-2.45 3.8,-4 7.13,-4 h 10.34 c 5.17,0 9.65,3.75 9.24,7.67 H 635 Z"
     id="path37" />
  <g
     class="cls-10"
     clip-path="url(#clip-path-2)"
     id="g137"
     transform="translate(-31.88,-174.06094)">
    <path
       class="cls-9"
       d="m 315.25,407.36 a 6.52,6.52 0 0 1 -5.61,6.13 c -5.54,1 -17.69,-8 -28.24,-25.48 -10.55,-17.48 34,-39.3 40.17,-38.5 6.17,0.8 19.69,14.84 21.4,21.66 1.71,6.82 5,14.75 6.06,15.49 1.06,0.74 -13.87,16.21 -13.87,16.21 z"
       id="path39" />
    <path
       class="cls-6"
       d="m 455,304.08 17.43,-9.48 3.14,13.89 c 0,0 -13.96,13.34 -19.06,11.51 -5.1,-1.83 -9.1,-4.68 -6.59,-9.41 2.51,-4.73 5.08,-6.51 5.08,-6.51 z"
       id="path41" />
    <path
       class="cls-11"
       d="m 474.54,296.33 a 39.8,39.8 0 0 1 -15,8.43"
       id="path43" />
    <path
       class="cls-11"
       d="m 475.92,300.13 a 39.66,39.66 0 0 1 -15,8.43"
       id="path45" />
    <path
       class="cls-11"
       d="m 477.54,303.69 a 39.77,39.77 0 0 1 -15,8.42"
       id="path47" />
    <path
       class="cls-6"
       d="m 451.54,312 -8.44,16.21 9.31,5.81 c 0,0 4.84,-10.2 6.16,-16.37 1.32,-6.17 -7.03,-5.65 -7.03,-5.65 z"
       id="path49" />
    <path
       class="cls-6"
       d="m 453,299.4 c 0.16,2.49 -1.17,3.32 -1.34,6.48 -0.17,3.16 5.32,2.17 5.14,5.82 -0.18,3.65 -2.83,7 -5,6.14 -2.17,-0.86 -8,-5.69 -2.29,-20.62 0.01,0 3.33,-0.31 3.49,2.18 z"
       id="path51" />
    <path
       class="cls-6"
       d="m 154.28,506.87 -17.34,9.64 10.06,10.08 c 0,0 18.74,-4.64 19.9,-9.93 1.16,-5.29 0.93,-10.19 -4.42,-10.6 -5.35,-0.41 -8.2,0.81 -8.2,0.81 z"
       id="path53" />
    <path
       class="cls-11"
       d="m 137.27,519.23 a 39.7,39.7 0 0 0 15.12,-8.13"
       id="path55" />
    <path
       class="cls-11"
       d="m 139.74,522.43 a 39.82,39.82 0 0 0 15.13,-8.13"
       id="path57" />
    <path
       class="cls-11"
       d="M 141.87,525.7 A 39.86,39.86 0 0 0 157,517.58"
       id="path59" />
    <path
       class="cls-6"
       d="m 162.85,508.22 18.21,1.55 -0.08,11 c 0,0 -11.2,-1.36 -17.13,-3.56 -5.93,-2.2 -1,-8.99 -1,-8.99 z"
       id="path61" />
    <path
       class="cls-6"
       d="m 151.39,502.68 c 2,1.47 3.43,0.79 6.19,2.33 2.76,1.54 -1,5.65 2.17,7.46 3.17,1.81 7.4,1.34 7.86,-0.93 0.46,-2.27 -0.55,-9.77 -16.19,-13 0,0.03 -2.05,2.67 -0.03,4.14 z"
       id="path63" />
    <path
       class="cls-3"
       d="m 399.84,407.46 a 25.09,25.09 0 0 0 -7.67,-0.64 c -4.16,0.31 -31.67,12.13 -36,12 A 22.38,22.38 0 0 1 348,416.7 c 0,0 -52.94,15.47 -57.58,19.14 -4.64,3.67 -9.6,9.59 -9.29,24.94 0.31,15.35 68.67,113.58 68.67,113.58 l 62.95,-18.43 z"
       id="path65" />
    <polygon
       class="cls-6"
       points="353.38,433.48 354.25,433.41 359.13,432.97 342.7,403.23 339.2,396.9 335.14,389.54 320.39,397.64 313.99,401.16 311.47,402.54 313.11,412.85 316.88,436.7 347.48,434 "
       id="polygon67" />
    <path
       class="cls-9"
       d="m 316.88,436.7 30.6,-2.7 5.9,-0.52 0.87,-0.07 a 15.88,15.88 0 0 0 -4.85,-6.59 c -5,-3.68 -18.87,-2.26 -16.88,-8.51 1.99,-6.25 -6.85,-11.58 -6.85,-11.58 l -11.67,-5.57 -2.52,1.38 1.64,10.31 z"
       id="path69" />
    <path
       class="cls-6"
       d="m 293.46,387 c 11.81,15 35,31.77 48.64,15.17 0.35,-0.42 0.66,-0.84 1,-1.28 10,-14.65 -10.05,-35 -18.53,-42.59 a 8,8 0 0 0 -8.38,-1.44 47.16,47.16 0 0 0 -23.47,21.52 8,8 0 0 0 0.78,8.62 z"
       id="path71" />
    <path
       class="cls-9"
       d="m 335,389.4 -6.25,7.18 c 0,0 -2.08,-3.67 -0.19,-4.62 1.89,-0.95 2.11,-2.75 2.76,-3.07 0.65,-0.32 3.68,0.51 3.68,0.51 z"
       id="path73" />
    <path
       class="cls-9"
       d="m 335.08,391.54 c 0,0 1,2.06 -1.95,3.27 -2.95,1.21 -2.92,1.88 -2.88,2 0.04,0.12 1.95,-0.91 1.93,-0.3 -0.02,0.61 -0.23,1.34 0.24,1.71 0.47,0.37 0.31,-1.88 1.41,-2.66 1.1,-0.78 3.35,-2.31 1.25,-4.02 z"
       id="path75" />
    <path
       class="cls-12"
       d="m 324.27,364.23 c 0,0 -9.94,7.1 -6.37,12.11 3.57,5.01 10.52,9.66 10.52,9.66 l -2.4,3.33 c 0,0 -11.33,-8.82 -13.07,-8.53 -1.74,0.29 -8.11,1.05 -10.68,9.43"
       id="path77" />
    <path
       class="cls-12"
       d="m 328.19,370.62 c 0.09,2.8 -1.36,4.79 -4.37,6"
       id="path79" />
    <path
       class="cls-12"
       d="m 314.57,386.12 q 0.15,4.2 -4.36,6"
       id="path81" />
    <path
       class="cls-9"
       d="m 305.21,363.24 c -1,1.34 1.64,1.46 0.34,5.29 -1.3,3.83 -5.06,1.75 -6.66,3.55 -1.6,1.8 1.91,6.53 -2.53,7.43 -4.44,0.9 -4.67,2.07 -4.78,3.28 -0.11,1.21 -2,-8 -2,-8 z"
       id="path83" />
    <ellipse
       class="cls-6"
       cx="303.31"
       cy="398.17999"
       rx="2.8399999"
       ry="5.8800001"
       transform="rotate(-59.74,303.31446,398.19134)"
       id="ellipse85" />
    <ellipse
       class="cls-6"
       cx="336.82001"
       cy="370.67001"
       rx="2.8399999"
       ry="5.8800001"
       transform="rotate(-25.72,336.87035,370.70281)"
       id="ellipse87" />
    <path
       class="cls-9"
       d="m 293.46,387 c 11.81,15 35,31.77 48.64,15.17 0.35,-0.42 0.66,-0.84 1,-1.28 -1.33,-1.7 -4.22,-4.74 -6.6,-2.77 -3.2,2.66 -4.84,6.37 -8.71,5.9 -3.87,-0.47 -13.27,-5 -11.68,-8.1 1.59,-3.1 -0.46,-5 -2.93,-2.25 -2.47,2.75 -14.3,-4 -16.81,-7.26 -1.69,-2.21 -3.37,-3.86 -4.56,-4 a 7.9,7.9 0 0 0 1.65,4.59 z"
       id="path89" />
    <path
       class="cls-13"
       d="m 311.4,403.36 c 7.92,4.95 16.49,7.44 23.77,4.21"
       id="path91" />
    <path
       class="cls-13"
       d="m 325.73,368.61 c -3.93,1.4 -5.3,3.95 -4.79,7.34"
       id="path93" />
    <path
       class="cls-13"
       d="m 312.43,385 c -2.89,0.92 -4.59,2.68 -4.58,5.66"
       id="path95" />
    <path
       class="cls-13"
       d="m 316.18,371.79 c 0,0 -3.8,4.39 10.3,14.56"
       id="path97" />
    <path
       class="cls-3"
       d="m 377.59,425.44 50.87,-52.18 -2.3,-43.91 59.84,-6.51 c 0,0 20.29,136.21 -73.45,141 -93.74,4.79 -34.96,-38.4 -34.96,-38.4 z"
       id="path99" />
    <path
       class="cls-3"
       d="m 177,493.15 8.76,80.42 c 0,0 107,10.76 127.38,-76.77 l -7,-64.61 c 0,0 -28.72,5 -64.45,59.95 z"
       id="path101" />
    <line
       class="cls-14"
       x1="182.89999"
       y1="490.23001"
       x2="193.11"
       y2="577.81"
       id="line103" />
    <line
       class="cls-14"
       x1="423.41"
       y1="333.72"
       x2="491.57999"
       y2="331.17001"
       id="line105" />
    <polygon
       class="cls-9"
       points="178.12,368.81 33.56,403.48 97.24,479.23 241.79,444.55 "
       id="polygon107" />
    <polygon
       class="cls-4"
       points="172.41,376.59 48.24,406.37 102.94,471.44 227.11,441.66 "
       id="polygon109" />
    <polygon
       class="cls-9"
       points="241.79,444.55 302.49,458.39 158.72,492.87 97.24,479.23 "
       id="polygon111" />
    <polygon
       class="cls-15"
       points="161.91,508.83 158.72,492.87 302.49,458.39 307.23,466.79 "
       id="polygon113" />
    <polygon
       class="cls-3"
       points="161.91,508.83 158.72,492.87 97.24,479.23 100.77,493.94 "
       id="polygon115" />
    <polygon
       class="cls-7"
       points="91.54,480.59 97.24,479.23 33.56,403.48 31.88,411.08 "
       id="polygon117" />
    <line
       class="cls-16"
       x1="251.02"
       y1="458.67999"
       x2="160.72"
       y2="480.34"
       id="line119" />
    <line
       class="cls-16"
       x1="240"
       y1="450.04001"
       x2="129.99001"
       y2="479.54001"
       id="line121" />
    <line
       class="cls-16"
       x1="267.32999"
       y1="460.98999"
       x2="232.75"
       y2="469.28"
       id="line123" />
    <line
       class="cls-16"
       x1="227.42"
       y1="470.56"
       x2="159.31"
       y2="488.26001"
       id="line125" />
    <path
       class="cls-3"
       d="m 416.72,819.79 c 2.39,-8.69 4.48,-17.47 6.19,-26.34 a 297.15,297.15 0 0 0 -16.82,-170.8 c 33.27,59.05 43.81,127.81 35.08,194.48 L 515.89,809 c 0,0 -8.82,-164.3 -41.67,-202.84 -32.85,-38.54 -58.11,-32.16 -61.44,-50.23 -3.33,-18.07 -62.95,18.43 -62.95,18.43 0,0 -43.61,18.92 -15.53,138.76 21.28,90.78 4.7,115.14 4.7,115.14 z"
       id="path127" />
    <polygon
       class="cls-3"
       points="437.89,912.36 390.73,893.48 400.54,809.69 371.43,818.2 359.17,912.36 "
       id="polygon129" />
    <polygon
       class="cls-3"
       points="514.19,895.64 473.71,863 503.94,786.87 473.63,787.76 438.01,875.78 "
       id="polygon131" />
    <line
       class="cls-14"
       x1="336.35001"
       y1="822.90997"
       x2="421.88"
       y2="812.70001"
       id="line133" />
    <line
       class="cls-14"
       x1="437.70999"
       y1="811.34998"
       x2="519.15997"
       y2="802.73999"
       id="line135" />
  </g>
  <polygon
     class="cls-8"
     points="531.64,248.89 529.06,268.95 545.15,281.22 563.81,273.42 566.39,253.36 550.31,241.1 "
     id="polygon139"
     transform="translate(-31.88,-174.06094)" />
  <polygon
     class="cls-8"
     points="882.05,881.16 877.58,915.95 905.46,937.22 937.82,923.7 942.3,888.91 914.41,867.65 "
     id="polygon141"
     transform="translate(-31.88,-174.06094)" />
  <polyline
     class="cls-9"
     points="930.59 731.37 963.52 756.39 957.9 767.37 915.01 741.33 931.1 730.09"
     id="polyline143"
     transform="translate(-31.88,-174.06094)" />
  <polygon
     class="cls-9"
     points="777.65,877.92 770.5,838.61 751.61,840.39 762.84,879.97 "
     id="polygon145"
     transform="translate(-31.88,-174.06094)" />
  <path
     class="cls-3"
     d="m 627.06,373.28906 c 0,0 -17.14,49.7 40.7,145.24 l 48.84,152.95 32.52,3.86 c 0,0 3.43,-89.12 -19.71,-119.54 -23.14,-30.42 -15.85,-135 -18.42,-154.66 -2.57,-19.66 -83.93,-27.85 -83.93,-27.85 z"
     id="path147" />
  <path
     class="cls-3"
     d="m 702.46,424.69906 c 0,0 21.85,-6.85 23.14,-9.85 1.29,-3 44.52,-41.56 44.52,-41.56 l -20.81,-24 -120.11,8.15 c 0,0 -10.29,33.23 -3,56.24 7.29,23.01 76.26,11.02 76.26,11.02 z"
     id="path149" />
  <path
     class="cls-3"
     d="m 759.01,371.14906 -45.41,39.84 c 0,0 60,66.84 86.54,85.26 26.54,18.42 43.28,54.41 92.55,81.83 l 27.43,-22.28 c 0,0 -38.14,-51.86 -65.56,-70.69 -27.42,-18.83 -44.56,-110.54 -95.55,-113.96 z"
     id="path151" />
  <path
     class="cls-9"
     d="m 648.12,387.45906 a 40.77,40.77 0 0 1 -4.45,-0.22 c 0,0 -87.14,-35.2 -105.61,-62.3 -18.47,-27.1 -39,-75.93 -4.41,-125 34.59,-49.07 56.91,-72.09 87.5,-82 30.59,-9.91 51.05,-22.000005 51.05,-22.000005 l 82.5,36.350005 a 105.75,105.75 0 0 1 12.35,9.65 c 18.65,16.52 52.74,54.93 61.21,120.45 11.33,87.62 -140.67,125.17 -180.14,125.07 z"
     id="path153" />
  <polygon
     class="cls-3"
     points="715.04,486.95 793.52,439.06 749.44,386.94 695.4,384.03 "
     id="polygon155"
     transform="translate(-31.88,-174.06094)" />
  <rect
     class="cls-8"
     x="457.74759"
     y="318.91849"
     width="146.31"
     height="146.31"
     transform="rotate(-13.49)"
     id="rect157" />
  <rect
     class="cls-8"
     x="404.9888"
     y="371.66959"
     width="146.31"
     height="146.31"
     transform="rotate(-13.49)"
     id="rect159" />
  <polygon
     class="cls-15"
     points="693.65,343.3 654.66,406.89 512.39,441.02 551.38,377.42 "
     id="polygon161"
     transform="translate(-31.88,-174.06094)" />
  <polygon
     class="cls-15"
     points="693.65,343.3 654.66,406.89 688.79,549.17 727.78,485.57 "
     id="polygon163"
     transform="translate(-31.88,-174.06094)" />
  <polygon
     class="cls-6"
     points="525.26,367.61 551.38,377.42 512.39,441.02 481.6,416.71 "
     id="polygon165"
     transform="translate(-31.88,-174.06094)" />
  <polygon
     class="cls-8"
     points="716.86,334.94 693.65,343.3 654.66,406.89 686.95,384.02 "
     id="polygon167"
     transform="translate(-31.88,-174.06094)" />
  <ellipse
     class="cls-17"
     cx="492.17636"
     cy="411.28708"
     rx="20.780001"
     ry="30.85"
     transform="rotate(-11.48)"
     id="ellipse169" />
  <path
     class="cls-4"
     d="m 537.75206,315.3513 54.78168,-11.12554 5.48316,26.99884 a 27.09,27.09 0 0 1 -21.15046,31.96905 l -1.68559,0.34233 a 27.09,27.09 0 0 1 -31.93966,-21.15644 z"
     id="path171" />
  <circle
     class="cls-8"
     cx="568.07001"
     cy="324.35907"
     r="5.3499999"
     id="circle173" />
  <polygon
     class="cls-8"
     points="612.14,519.97 600.34,500.3 597.13,523.02 "
     id="polygon175"
     transform="translate(-31.88,-174.06094)" />
  <line
     class="cls-14"
     x1="635.94"
     y1="287.69907"
     x2="653.88"
     y2="362.47903"
     id="line177" />
  <polyline
     class="cls-14"
     points="674.51 374.51 693.65 343.3 551.38 377.42"
     id="polyline179"
     transform="translate(-31.88,-174.06094)" />
  <line
     class="cls-14"
     x1="514.63"
     y1="409.22903"
     x2="636.96997"
     y2="380.67905"
     id="line181" />
  <path
     class="cls-9"
     d="m 648.12,387.45906 -14.62,-24.52 a 14.21,14.21 0 0 1 0.51,-15.26 c 23.12,-34 92.51,-89.63 92.51,-89.63 -8.18,-10.72 -15.08,-32.8 -19.9,-52 a 45.67,45.67 0 0 1 25.5,-52.82 156.69,156.69 0 0 1 34.93,-11.29 c 18.65,16.52 52.74,54.93 61.21,120.45 11.33,87.62 -140.67,125.17 -180.14,125.07 z"
     id="path183" />
  <path
     class="cls-6"
     d="m 683.12,113.48906 c 0,0 -24.41,31.15 -40,26.24 -15.59,-4.91 -21.4,-21.63 -21.4,-21.63 l 4.61,-3.75 1.64,-14.11 3.27,-28.300005 a 35.32,35.32 0 0 1 2.12,-3.47 c 4.74,-6.91 17.06,-20.56 33.36,-6.06 0,0.01 13.85,30.88 16.4,51.080005 z"
     id="path185" />
  <path
     class="cls-9"
     d="m 659.34,86.749055 c -14,4.06 -21.74,28.920005 -21.74,28.920005 a 117.79,117.79 0 0 1 -9.63,-15.43 l 3.27,-28.300005 a 35.32,35.32 0 0 1 2.12,-3.47 c 12.77,-5.63 32.29,-6.8 32.29,-6.8 0,0 7.73,21.01 -6.31,25.08 z"
     id="path187" />
  <path
     class="cls-9"
     d="m 628.55,20.339055 c 0,0 -15.66,-13.0999995 -5.27,-19.2299995 10.39,-6.13 17.37,15.1499995 17.37,15.1499995 0,0 1.22,-7.4899995 6.56,-7.3199995 5.34,0.17 9.2,15.4899995 9.2,15.4899995 0,0 -0.45,-5.73 4.48,-4.82 4.93,0.91 11,15.2 11,15.2 0,0 7.3,-5.28 9.21,-2.89 1.91,2.39 -4.73,4.93 -4.73,4.93 0,0 7.49,0 8,2.73 0.51,2.73 -10.72,3.83 -10.72,3.83"
     id="path189" />
  <path
     class="cls-6"
     d="m 677.6,42.589055 c 0,0 -3.75,30.66 -26.39,37 -22.64,6.34 -34.82,1.39 -34.38,-0.25 0.08,-0.3 0.24,-1 0.44,-2 0.9,-4.24 2.69,-13.33 2.69,-13.33 l -5.89,0.06 c 2.95,-4.15 8.31,-23.07 8.31,-23.07 l -1.79,-0.6 8.25,-20.87 30.67,14.45 z"
     id="path191" />
  <polygon
     class="cls-9"
     points="664.14,210.41 658.87,208.21 652.44,233.77 "
     id="polygon193"
     transform="translate(-31.88,-174.06094)" />
  <path
     class="cls-18"
     d="m 630.81,46.589055 c 0,0 7.58,-0.56 12.57,8.92"
     id="path195" />
  <ellipse
     class="cls-9"
     cx="429.92352"
     cy="476.47742"
     rx="1.09"
     ry="2.04"
     transform="rotate(-43.28)"
     id="ellipse197" />
  <path
     class="cls-19"
     d="m 632.5,47.059055 c 2.29,4.89 5.78,7.22 10.13,7.72"
     id="path199" />
  <path
     class="cls-19"
     d="m 632.25,45.239055 -0.85,-1.83 q 10.65,2.21 13.06,13.31"
     id="path201" />
  <path
     class="cls-9"
     d="m 633.84,43.689055 c 5.28,-1.75 10.28,2.25 13.42,6.11 -3.21,-3.39 -8.17,-7.13 -13,-5.21 l -0.4,-0.9 z"
     id="path203" />
  <path
     class="cls-9"
     d="m 627.05,35.499055 c 0,0 -1,-4.68 7.92,0 a 170.34,170.34 0 0 1 18.74,12 l -0.23,3.7 c 0,0 -19.7,-14.43 -24.5,-14.13 a 2.1,2.1 0 0 1 -1.93,-1.57 z"
     id="path205" />
  <path
     class="cls-9"
     d="m 677.6,42.589055 c 0,0 -3.75,30.66 -26.39,37 -22.64,6.34 -34.82,1.39 -34.38,-0.25 0.08,-0.3 0.24,-1 0.44,-2 1.81,-0.27 5.31,-0.67 5.69,0.17 0.51,1.13 -2.37,3.81 5,3.55 7.37,-0.26 26.78,-4.85 29.08,-7 2.3,-2.15 -2.64,-11.49 -8.66,-12 -6.02,-0.51 -14.12,-6.63 -12.12,-9 2,-2.37 21.16,3 25.12,2.91 3.96,-0.09 8.81,-9.42 8.81,-9.42 l -10.69,-12.53 z"
     id="path207" />
  <polygon
     class="cls-8"
     points="713.2,242.1 645.95,229.57 658.29,196.19 711.87,230.42 "
     id="polygon209"
     transform="translate(-31.88,-174.06094)" />
  <path
     class="cls-8"
     d="m 677.19,54.779055 c 0,0 1.35,20.71 20.42,39 19.07,18.290005 21.25,22.160005 21.25,22.160005 0,0 1.1,-47.860005 -41.67,-61.160005 z"
     id="path211" />
  <path
     class="cls-8"
     d="m 681.12,61.809055 c 0,0 20.67,1.86 41.72,-14.16 21.05,-16.02 25.14,-17.57 25.14,-17.57 0,0 -47.13,-8.47 -66.86,31.73 z"
     id="path213" />
  <path
     class="cls-20"
     d="m 619.04,68.749055 a 12.73,12.73 0 0 0 11.81,1.6"
     id="path215" />
  <path
     class="cls-20"
     d="m 631.05,67.429055 q -1.06,3.69 0.77,5.12"
     id="path217" />
  <path
     class="cls-14"
     d="m 713.59,230.23906 c -2.89,-8.64 -5.42,-17.88 -7.52,-26.42 a 43.15,43.15 0 0 1 23.7,-49.5 l 0.54,-0.25"
     id="path219" />
  <path
     class="cls-14"
     d="m 686.39,292.36906 c 10.43,-9.43 20.26,-17.86 27.59,-24"
     id="path221" />
  <path
     class="cls-6"
     d="m 624.54,376.73906 c 0,0 -3.24,6.91 -6.07,7.59 l -6.47,1.55 c 0,0 9.11,2.87 13.11,3.72 4,0.85 10.49,1.07 11.86,0"
     id="path223" />
  <path
     class="cls-6"
     d="m 508.42,383.73906 c -0.29,0.38 -6.76,2.78 -6.76,5.48 0,2.7 -2.85,6.53 -1.6,8.16 1.25,1.63 -2,9.76 4.14,9.86 0,0 5.07,5.9 7.12,5 0,0 2.92,3.4 6.5,1.33 0,0 3.85,2.15 7.22,-4.28 3.37,-6.43 -3.33,-3.15 -3.33,-3.15 0,0 1.63,-5.77 -0.47,-7.35 -2.1,-1.58 -2.45,0.53 -2.45,0.53 0,0 1.29,-3.55 -0.09,-4.59 a 2.44,2.44 0 0 0 -2.69,-0.23 c 0,0 0.53,-2.08 -1.12,-2.81 -1.65,-0.73 -3.95,1.78 -3.95,1.78 z"
     id="path225" />
  <polygon
     class="cls-3"
     points="716.86,912.36 789.65,912.36 776.57,867.78 758.98,871.46 758.98,892.32 "
     id="polygon227"
     transform="translate(-31.88,-174.06094)" />
  <polygon
     class="cls-3"
     points="955.43,789.08 1011.35,815.88 981.67,761.5 957.35,748.86 951.99,765.72 958.88,773.76 "
     id="polygon229"
     transform="translate(-31.88,-174.06094)" />
  <path
     class="cls-14"
     d="m 695.28,348.93906 c 12.85,-9.62 20,0 32.89,-9.63 12.89,-9.63 5.66,-19.23 18.52,-28.85 12.86,-9.62 20,0 32.89,-9.63"
     id="path231" />
  <polyline
     class="cls-21"
     points="182.18 912.36 494.93 912.36 647.69 912.36 863.43 912.36 962.3 912.36 981.67 912.36"
     id="polyline233"
     transform="translate(-31.88,-174.06094)" />
  <polygon
     class="cls-9"
     points="715.04,300.65 692.37,255.71 688.29,258.77 697.74,312.39 "
     id="polygon235"
     transform="translate(-31.88,-174.06094)" />
  <path
     class="cls-14"
     d="m 616.49,119.58906 c 9.76,42.5 39.54,40.8 90.77,-8.25"
     id="path237" />
  <ellipse
     class="cls-22"
     cx="652.14001"
     cy="371.14908"
     rx="7.1999998"
     ry="8.9399996"
     id="ellipse239" />
  <path
     class="cls-6"
     d="m 649.82,365.45906 c 0,0 -21.25,1.43 -25.4,6.15 -4.15,4.72 -15.58,4.85 -15.58,4.85 0,0 1.42,4.29 4.14,4.21 a 29.64,29.64 0 0 0 9.85,-2.57 c 1.64,-1 2.5,3.57 6,7.07 a 17.77,17.77 0 0 0 8.14,4.43 l 17.89,-13.93 a 5.3,5.3 0 0 0 2,-5.36 c -0.6,-2.37 -2.29,-4.96 -7.04,-4.85 z"
     id="path241" />
  <line
     class="cls-22"
     x1="883.13"
     y1="578.07904"
     x2="929.08997"
     y2="545.05902"
     id="line243" />
  <line
     class="cls-22"
     x1="707.46997"
     y1="664.539"
     x2="757.77002"
     y2="664.539"
     id="line245" />
  <g
     class="cls-23"
     clip-path="url(#clip-path-3)"
     id="g253"
     transform="translate(-31.88,-174.06094)">
    <polygon
       class="cls-6"
       points="622.61,441.36 570.47,434.83 576.4,387.5 596.22,372.43 630.7,376.75 "
       id="polygon247" />
    <polygon
       class="cls-8"
       points="600.43,396.7 576.4,387.5 596.22,372.43 "
       id="polygon249" />
    <path
       class="cls-3"
       d="m 588.71,411.31 5.51,-0.32 c -0.41,2.42 -0.81,4.84 -1.22,7.26 -0.06,0.38 -0.15,0.75 -0.25,1.19 a 6.53,6.53 0 0 0 -5.79,0.27 c -2.78,1.49 -3.29,4.79 -1,6.78 a 5.94,5.94 0 0 0 5.95,1.13 5,5 0 0 0 3.71,-4.4 c 0.63,-4.08 1.36,-8.13 2,-12.2 0,-0.08 0,-0.16 0,-0.23 l 10.67,-0.62 -1.29,8.24 a 23.84,23.84 0 0 0 -4.62,0.23 c -3.55,0.89 -4.81,4.63 -2.46,7 a 5.81,5.81 0 0 0 6,1.42 5,5 0 0 0 3.86,-4 c 0.09,-0.46 0.16,-0.92 0.24,-1.38 0.65,-3.9 1.31,-7.8 1.95,-11.71 l 5.61,-0.33 3.09,-6.27 -28.86,1.63 z"
       id="path251" />
  </g>
  <line
     class="cls-14"
     x1="514.92999"
     y1="258.69907"
     x2="612"
     y2="235.41907"
     id="line255" />
  <path
     class="cls-24"
     d="m 109.41,259.52906 c -0.08,-1 -0.16,-2.08 -0.23,-3.11"
     id="path257" />
  <path
     class="cls-25"
     d="M 108.83,250.23906 C 99.32,46.069055 306.12,-88.060945 535.88,170.66906"
     id="path259" />
  <path
     class="cls-24"
     d="m 537.92,172.93906 2.06,2.35"
     id="path261" />
  <polygon
     class="cls-3"
     points="578.38,356.96 579.52,340.68 562.11,355.83 "
     id="polygon263"
     transform="translate(-31.88,-174.06094)" />
  <polygon
     class="cls-6"
     points="228.38,277.28 176.25,270.75 182.18,223.42 202,208.35 236.48,212.67 "
     id="polygon265"
     transform="translate(-31.88,-174.06094)" />
  <polygon
     class="cls-8"
     points="206.21,232.62 182.18,223.42 202,208.35 "
     id="polygon267"
     transform="translate(-31.88,-174.06094)" />
  <path
     class="cls-4"
     d="m 162.61,73.169055 5.51,-0.32 c -0.41,2.42 -0.81,4.84 -1.22,7.26 -0.06,0.38 -0.16,0.75 -0.25,1.19 a 6.53,6.53 0 0 0 -5.79,0.27 c -2.78,1.5 -3.3,4.79 -1,6.79 a 6,6 0 0 0 5.95,1.13 5.05,5.05 0 0 0 3.71,-4.41 c 0.62,-4.08 1.35,-8.13 2,-12.2 0,-0.08 0,-0.16 0,-0.23 l 10.67,-0.62 -1.37,8.24 a 24.72,24.72 0 0 0 -4.63,0.23 c -3.54,0.89 -4.81,4.63 -2.45,7 a 5.8,5.8 0 0 0 6,1.42 5,5 0 0 0 3.86,-4 c 0.09,-0.46 0.16,-0.92 0.24,-1.38 l 1.95,-11.71 5.6,-0.32 3.1,-6.27 -28.78,1.7 z"
     id="path269" />
  <polygon
     class="cls-7"
     points="408.7,242.88 381.39,219.04 403.03,194.25 420.18,193.27 438.24,209.03 "
     id="polygon271"
     transform="translate(-31.88,-174.06094)" />
  <polygon
     class="cls-8"
     points="413.23,208.77 403.03,194.25 420.18,193.27 "
     id="polygon273"
     transform="translate(-31.88,-174.06094)" />
  <polygon
     class="cls-4"
     points="406.63,223.19 413.22,222.49 411.96,232.9 393.04,216.39 408.31,211.76 "
     id="polygon275"
     transform="translate(-31.88,-174.06094)" />
  <circle
     class="cls-4"
     cx="369.69998"
     cy="34.299057"
     r="1.86"
     id="circle277" />
  <path
     class="cls-26"
     d="m 525.41,235.41906 c -257,-216.800005 -688.12,-88.63 -383.51,15.16"
     id="path279" />
  <polygon
     class="cls-3"
     points="174.13,414.75 168.18,432.74 186.73,428.9 "
     id="polygon281"
     transform="translate(-31.88,-174.06094)" />
  <path
     class="cls-9"
     d="m 273.63,110.70906 c 0.51,-3.12 -2.52,-5.81 -6.29,-5.37 l -7.53,0.89 a 5.83,5.83 0 0 0 -5,3.87 l -0.84,2.93 -28.78,3.38 -3.67,34 51.69,-6.09 0.6,-33.6 z"
     id="path283" />
  <line
     class="cls-27"
     x1="234.51001"
     y1="120.87906"
     x2="232.34"
     y2="143.08905"
     id="line285" />
  <line
     class="cls-27"
     x1="230.37"
     y1="125.24905"
     x2="238.07001"
     y2="123.76904"
     id="line287" />
  <line
     class="cls-27"
     x1="230.37"
     y1="128.57907"
     x2="238.07001"
     y2="127.09906"
     id="line289" />
  <line
     class="cls-27"
     x1="230.37"
     y1="131.89905"
     x2="238.07001"
     y2="130.42905"
     id="line291" />
  <line
     class="cls-27"
     x1="230.37"
     y1="135.22906"
     x2="238.07001"
     y2="133.75906"
     id="line293" />
  <line
     class="cls-27"
     x1="230.37"
     y1="138.55905"
     x2="238.07001"
     y2="137.07907"
     id="line295" />
  <circle
     class="cls-4"
     cx="232.41"
     cy="140.81906"
     r="1.33"
     id="circle297" />
  <path
     class="cls-4"
     d="m 232.12,141.63906 v 0 c -0.18,0.3 -2.26,3.95 -1,5.25 a 2.27,2.27 0 0 0 2.57,0.22 1.26,1.26 0 0 0 0.7,-1.66 l -1.59,-3.93 c 0,0 0,0 -0.06,0 z"
     id="path299" />
  <rect
     class="cls-9"
     x="231.34"
     y="145.59906"
     width="2.4000001"
     height="0.94"
     rx="0.47"
     id="rect301" />
  <polygon
     class="cls-6"
     points="399.13,821.71 370.57,824.82 362.66,885.59 391.65,885.59 "
     id="polygon303"
     transform="translate(-31.88,-174.06094)" />
  <polygon
     class="cls-6"
     points="477.42,853.65 448.57,849.7 462.69,814.78 494.22,811.35 "
     id="polygon305"
     transform="translate(-31.88,-174.06094)" />
  <path
     class="cls-3"
     d="m 367.62,281.10906 c 0,0 13.61,15 13.61,24 0,9 -11.14,23 -17,21.25"
     id="path307" />
  <line
     class="cls-14"
     x1="312.60001"
     y1="401.53903"
     x2="381.81"
     y2="385.53903"
     id="line309" />
  <line
     class="cls-14"
     x1="396.57999"
     y1="199.19907"
     x2="417.32001"
     y2="204.84906"
     id="line311" />
  <polygon
     class="cls-9"
     points="359.13,432.97 316.88,436.7 356.94,455.17 "
     id="polygon313"
     transform="translate(-31.88,-174.06094)" />
  <polyline
     class="cls-14"
     points="313.15 439.3 360.6 463.17 366.47 430.74"
     id="polyline315"
     transform="translate(-31.88,-174.06094)" />
  <path
     class="cls-14"
     d="m 289.66,313.10906 c 2.78,12 13,17.79 31.66,16.6"
     id="path317" />
  <line
     class="cls-14"
     x1="207.06999"
     y1="316.16907"
     x2="222.73"
     y2="321.81906"
     id="line319" />
</svg>
