<?xml version="1.0" encoding="UTF-8" standalone="no"?>
<svg
   viewBox="0 0 801.39001 809.85535"
   version="1.1"
   id="svg361"
   sodipodi:docname="read-only.svg"
   width="801.39001"
   height="809.85535"
   inkscape:version="1.2.2 (b0a8486541, 2022-12-01)"
   inkscape:export-filename="read-only.png"
   inkscape:export-xdpi="200"
   inkscape:export-ydpi="200"
   xmlns:inkscape="http://www.inkscape.org/namespaces/inkscape"
   xmlns:sodipodi="http://sodipodi.sourceforge.net/DTD/sodipodi-0.dtd"
   xmlns="http://www.w3.org/2000/svg"
   xmlns:svg="http://www.w3.org/2000/svg">
  <sodipodi:namedview
     id="namedview363"
     pagecolor="#ffffff"
     bordercolor="#000000"
     borderopacity="0.25"
     inkscape:showpageshadow="2"
     inkscape:pageopacity="0.0"
     inkscape:pagecheckerboard="0"
     inkscape:deskcolor="#d1d1d1"
     showgrid="false"
     inkscape:zoom="0.21851852"
     inkscape:cx="377.54237"
     inkscape:cy="382.11864"
     inkscape:window-width="1504"
     inkscape:window-height="942"
     inkscape:window-x="0"
     inkscape:window-y="0"
     inkscape:window-maximized="1"
     inkscape:current-layer="svg361" />
  <defs
     id="defs4">
    <style
       id="style2">.cls-1{fill:#8640ff;}.cls-2{fill:#ff4aed;}.cls-10,.cls-11,.cls-12,.cls-13,.cls-14,.cls-16,.cls-17,.cls-18,.cls-19,.cls-20,.cls-21,.cls-22,.cls-23,.cls-24,.cls-26,.cls-27,.cls-28,.cls-29,.cls-3,.cls-30,.cls-4,.cls-7{fill:none;}.cls-10,.cls-11,.cls-14,.cls-19,.cls-22,.cls-28,.cls-29,.cls-3{stroke:#fff;}.cls-10,.cls-11,.cls-16,.cls-21,.cls-26,.cls-3{stroke-linecap:square;stroke-linejoin:bevel;}.cls-12,.cls-13,.cls-16,.cls-18,.cls-30,.cls-4,.cls-7{stroke:#3c3c3b;}.cls-12,.cls-13,.cls-14,.cls-17,.cls-18,.cls-19,.cls-20,.cls-22,.cls-23,.cls-24,.cls-25,.cls-27,.cls-28,.cls-29,.cls-30,.cls-4,.cls-7{stroke-miterlimit:10;}.cls-4{stroke-width:1.5px;stroke-dasharray:7.67 7.67;}.cls-5{fill:#3c3c3b;}.cls-6{fill:#02c8f9;}.cls-7{stroke-width:1.3px;}.cls-8{fill:#0870d9;}.cls-25,.cls-9{fill:#fff;}.cls-10{stroke-width:1.16px;}.cls-11{stroke-width:1.16px;}.cls-12,.cls-29{stroke-width:1.95px;}.cls-12,.cls-13,.cls-29{stroke-dasharray:9.96 9.96;}.cls-13,.cls-14,.cls-30{stroke-width:1.95px;}.cls-14,.cls-30{stroke-dasharray:9.96;}.cls-15{fill:#b008de;}.cls-16{stroke-width:1.9px;}.cls-17,.cls-20,.cls-21,.cls-23,.cls-24,.cls-25,.cls-26,.cls-27{stroke:#0870d9;}.cls-17{stroke-width:0.75px;}.cls-18{stroke-width:0.33px;}.cls-19{stroke-width:1.08px;}.cls-20{stroke-width:1.05px;}.cls-21{stroke-width:0.94px;}.cls-22{stroke-width:0.36px;}.cls-23{stroke-width:1.66px;}.cls-25{stroke-width:0.82px;}.cls-26{stroke-width:0.82px;}.cls-27{stroke-width:2.72px;}</style>
  </defs>
  <g
     id="read_only"
     data-name="read only"
     transform="translate(-154.08,-158.68466)">
    <polygon
       class="cls-1"
       points="260.65,634.28 232.32,627.3 238.66,601.58 250.57,594.56 269.3,599.18 "
       id="polygon6" />
    <polygon
       class="cls-2"
       points="251.31,608.22 238.66,601.58 250.57,594.56 "
       id="polygon8" />
    <line
       class="cls-3"
       x1="241.89999"
       y1="611.03998"
       x2="253.86"
       y2="613.98999"
       id="line10" />
    <line
       class="cls-3"
       x1="240.64"
       y1="616.15997"
       x2="257.60999"
       y2="620.34003"
       id="line12" />
    <line
       class="cls-3"
       x1="239.42"
       y1="621.08002"
       x2="256.39999"
       y2="625.27002"
       id="line14" />
    <line
       class="cls-4"
       x1="497.09"
       y1="381.69"
       x2="611.77002"
       y2="507.92999"
       id="line16" />
    <polygon
       class="cls-5"
       points="615.84,501.28 604.77,511.34 619.01,515.9 "
       id="polygon18" />
    <polygon
       class="cls-6"
       points="424.05,723.06 398.14,680.45 430.63,672.01 434.9,716.17 "
       id="polygon20" />
    <path
       class="cls-5"
       d="m 434.72,714.55 a 25.75,25.75 0 0 1 10.1,7.44 c 4.22,5.29 -49.47,26.31 -49.47,26.31 l 29.32,-25.74 z"
       id="path22" />
    <polygon
       class="cls-6"
       points="750.02,787.29 703.22,777.54 726.12,744.27 754.51,770.54 "
       id="polygon24" />
    <path
       class="cls-5"
       d="m 658,338.84 c 0,0 11.57,211 -26.1,299.5 0,0 64.31,-11.23 125,26.92 l -22.4,140 c 0,0 -216.23,-70.02 -221.5,-133.63 -5.27,-63.61 73.19,-312.74 73.19,-312.74 L 658,338.84"
       id="path26" />
    <path
       class="cls-5"
       d="m 579.44,353.09 c 0,0 -190.78,130.07 -221.32,176.13 -30.54,46.06 2,164.62 2,164.62 l 131,2.38 L 478.83,546 c 0,0 120.72,-137.12 131,-144.75 10.28,-7.63 -30.35,-48.17 -30.35,-48.17"
       id="path28" />
    <path
       class="cls-2"
       d="m 598.27,227 c 0,0 -126.66,-4 -149.42,36.92 0,0 -181.9,53.52 -106.88,112.13 l 44.84,21.48 c 0,0 58.81,-69.84 67.46,-83.21 8.65,-13.37 133.32,-4.01 144,-87.32 z"
       id="path30" />
    <path
       class="cls-2"
       d="m 656.1,322.61 c 0,0 -12.94,65.17 -59.91,52.79 -46.97,-12.38 -105.69,-75.14 -83.78,-122.1 21.91,-46.96 165.22,-47.13 143.69,69.31 z"
       id="path32" />
    <path
       class="cls-6"
       d="m 496.58,240.35 c 0,0 -5.52,-43.09 -42.77,-32.51 -22.33,6.35 -18.46,37.16 -18.46,37.16 l 5.19,0.13 2.53,15 8.77,0.7 11.28,6.93 c 0,0 41.57,2.15 33.46,-27.41 z"
       id="path34" />
    <path
       class="cls-6"
       d="m 545,244 -57.81,-18.87 -21,34.49 c 0,0 39.88,30.35 53.38,39.1 C 529.06,304.86 545,244 545,244 Z"
       id="path36" />
    <path
       class="cls-7"
       d="m 444.81,244.66 q 9.33,4.28 15.59,-4.2"
       id="path38" />
    <path
       class="cls-8"
       d="m 421.36,226.61 c 0,0 4.92,13.84 14.52,10.72 9.6,-3.12 17.71,-10.28 23,-11 5.29,-0.72 6.22,11.5 11.7,10.53 5.48,-0.97 11.63,-7.28 17.16,0.49 5.53,7.77 11.93,15.34 21.59,7.76 9.66,-7.58 48.49,-25.71 42,-51 -6.49,-25.29 -16.25,-42.57 -32,-32.52 -16.42,10.54 -97.97,65.02 -97.97,65.02 z"
       id="path40" />
    <polygon
       class="cls-9"
       points="538.05,310.75 518.72,304.94 547.75,234.83 "
       id="polygon42" />
    <line
       class="cls-7"
       x1="386.81"
       y1="397.54999"
       x2="349.34"
       y2="379.60001"
       id="line44" />
    <path
       class="cls-2"
       d="m 598.27,227 c 0,0 101.55,0.29 118.3,54.64 16.75,54.35 -1.27,151.65 -31.32,156.61 -30.05,4.96 -56.49,4.2 -67.72,-14.8 -11.23,-19 43.22,-89.53 43.22,-89.53 0,0 -74.29,-47.76 -72.1,-61.15 2.19,-13.39 9.62,-45.77 9.62,-45.77 z"
       id="path46" />
    <path
       class="cls-7"
       d="m 594.2,281.66 c -7,-19.1 -1.27,-34.57 14.07,-47.29"
       id="path48" />
    <line
       class="cls-7"
       x1="613.46997"
       y1="300.41"
       x2="644.21997"
       y2="322.29999"
       id="line50" />
    <polygon
       class="cls-5"
       points="454.45,489.53 305.69,379.55 415.46,323.71 564.23,433.69 "
       id="polygon52" />
    <polygon
       class="cls-9"
       points="451.7,477.84 323.92,383.36 418.21,335.4 546,429.88 "
       id="polygon54" />
    <polygon
       class="cls-5"
       points="564.23,433.69 602.83,440.6 640.49,447.34 492.54,337.96 415.46,323.71 "
       id="polygon56" />
    <polygon
       class="cls-1"
       points="503.95,321.22 492.54,337.96 640.49,447.34 650,440.02 "
       id="polygon58" />
    <polygon
       class="cls-6"
       points="503.95,321.22 492.54,337.96 415.46,323.71 426.66,308.57 "
       id="polygon60" />
    <polygon
       class="cls-8"
       points="409.6,319.37 415.46,323.71 305.69,379.55 307.46,370.02 "
       id="polygon62" />
    <line
       class="cls-10"
       x1="581.65997"
       y1="421.98999"
       x2="488.73001"
       y2="353.29001"
       id="line64" />
    <line
       class="cls-10"
       x1="564.84003"
       y1="426.54001"
       x2="453.14001"
       y2="339.26999"
       id="line66" />
    <line
       class="cls-10"
       x1="601.46997"
       y1="427.26999"
       x2="565.89001"
       y2="400.97"
       id="line68" />
    <line
       class="cls-10"
       x1="560.40002"
       y1="396.91"
       x2="490.97"
       y2="343.53"
       id="line70" />
    <polyline
       class="cls-11"
       points="454.45 489.53 564.23 433.69 640.49 447.34"
       id="polyline72" />
    <path
       class="cls-6"
       d="m 609.57,448.5 c 0,0 3.32,3.23 12.94,3 9.62,-0.23 8,-5.79 8,-5.79 0,0 -10.72,-4.59 -12.77,-4 -2.05,0.59 0.09,3.15 0.09,3.15 0,0 -6.21,-3.06 -7.15,-2.13 -0.94,0.93 1.79,3.86 1.79,3.86 0,0 -4.85,-2.58 -5.28,-1.56 -0.43,1.02 2.38,3.47 2.38,3.47 z"
       id="path74" />
    <path
       class="cls-6"
       d="m 338.25,406.05 c 0,0 -6,1.29 -16.68,-5.82 -10.68,-7.11 -4.72,-12.36 -4.72,-12.36 0,0 15.15,2.59 17,4.71 1.85,2.12 -2.33,3.49 -2.33,3.49 0,0 9.17,1 9.56,2.68 0.39,1.68 -4.75,3.07 -4.75,3.07 0,0 7.29,0.54 7.05,2 -0.24,1.46 -5.13,2.23 -5.13,2.23 z"
       id="path76" />
    <line
       class="cls-12"
       x1="416.51999"
       y1="402.14001"
       x2="300.29001"
       y2="546.79999"
       id="line78" />
    <polygon
       class="cls-5"
       points="309.65,550.67 294.49,538.49 291.52,557.7 "
       id="polygon80" />
    <path
       class="cls-5"
       d="m 754.51,770.54 a 34.69,34.69 0 0 1 16.93,0 c 8.83,2.35 -24.65,56.23 -24.65,56.23 h -20.67 l 15.88,-7.92 8,-31.55 z"
       id="path82" />
    <path
       class="cls-7"
       d="m 655.8,340.89 c 4.27,-5.27 9.26,-10.63 14.27,-14.29"
       id="path84" />
    <line
       class="cls-11"
       x1="454.45001"
       y1="490.26001"
       x2="428.85001"
       y2="470.60001"
       id="line86" />
    <line
       class="cls-13"
       x1="449.69"
       y1="402.14001"
       x2="726.28003"
       y2="578.79999"
       id="line88" />
    <polygon
       class="cls-5"
       points="729.12,569.08 718.65,585.46 738.07,586.33 "
       id="polygon90" />
    <line
       class="cls-14"
       x1="533.22998"
       y1="455.5"
       x2="647.58002"
       y2="528.53003"
       id="line92" />
    <polygon
       class="cls-15"
       points="621.46,502.07 599.47,515.72 587.08,495.76 590,483.85 604.54,474.82 "
       id="polygon94" />
    <polygon
       class="cls-2"
       points="599.13,491.84 587.08,495.76 590,483.85 "
       id="polygon96" />
    <line
       class="cls-3"
       x1="595.09003"
       y1="499.56"
       x2="604.37"
       y2="493.79999"
       id="line98" />
    <line
       class="cls-3"
       x1="597.56"
       y1="503.54001"
       x2="610.72998"
       y2="495.35999"
       id="line100" />
    <line
       class="cls-3"
       x1="599.92999"
       y1="507.35999"
       x2="613.09998"
       y2="499.17999"
       id="line102" />
    <polygon
       class="cls-6"
       points="386.04,842.07 373.98,808.02 350.53,835.49 "
       id="polygon104" />
    <polyline
       class="cls-16"
       points="155.03 826.3 467.78 826.3 620.54 826.3 836.28 826.3 935.15 826.3 954.52 826.3"
       id="polyline106" />
    <polygon
       class="cls-8"
       points="863.23,816.82 865.31,805.38 870.81,805.9 867.54,817.41 "
       id="polygon108" />
    <polygon
       class="cls-5"
       points="880.91,826.83 859.74,826.83 863.55,813.87 868.66,814.94 868.66,821 "
       id="polygon110" />
    <polygon
       class="cls-8"
       points="794.64,816.82 792.56,805.38 787.07,805.9 790.33,817.41 "
       id="polygon112" />
    <polygon
       class="cls-5"
       points="776.96,826.83 798.13,826.83 794.32,813.87 789.21,814.94 789.21,821 "
       id="polygon114" />
    <polygon
       class="cls-8"
       points="845.99,808.47 835.24,754.36 833.5,753.97 808.23,808.47 772.63,808.47 823.18,732.52 850.42,731.67 888.72,808.47 "
       id="polygon116" />
    <path
       class="cls-8"
       d="m 807.39,685.58 26.06,0.43 20.37,10.42 c 0,0 -3.06,34 -3.4,35.24 -0.34,1.24 -27.24,0.85 -27.24,0.85 l -18.35,-37.37 z"
       id="path118" />
    <path
       class="cls-2"
       d="m 833.45,647 1.19,-7.25 4.82,2.42 c 0,0 0.75,7.18 -1,8.19 -1.75,1.01 -3.47,1.49 -4.29,-0.36 a 7.29,7.29 0 0 1 -0.72,-3 z"
       id="path120" />
    <path
       class="cls-17"
       d="m 835.64,639.54 a 14.57,14.57 0 0 1 -0.94,6.29"
       id="path122" />
    <path
       class="cls-17"
       d="m 837.08,640.05 a 14.52,14.52 0 0 1 -0.94,6.29"
       id="path124" />
    <path
       class="cls-17"
       d="m 838.5,640.44 a 14.55,14.55 0 0 1 -0.94,6.29"
       id="path126" />
    <path
       class="cls-2"
       d="m 835,649.87 2.86,6.29 3.85,-1.27 a 38.61,38.61 0 0 0 -3.43,-5.68 c -1.52,-1.85 -3.28,0.66 -3.28,0.66 z"
       id="path128" />
    <path
       class="cls-2"
       d="m 831.61,646.43 c 0.78,0.55 0.72,1.13 1.61,1.93 0.89,0.8 1.86,-1 2.9,-0.08 1.04,0.92 1.41,2.48 0.67,2.9 -0.74,0.42 -3.51,0.91 -6.62,-4.28 0,0 0.67,-1.02 1.44,-0.47 z"
       id="path130" />
    <path
       class="cls-8"
       d="m 835.24,654.44 8.4,-1.61 c 0,0 17.09,18.07 17,24.4 -0.09,6.33 -7.64,27.88 -7.64,27.88 l -14.27,-2.92 c 0,0 2.7,-9.88 3.08,-11.4 a 5.7,5.7 0 0 1 2.8,-3.56 c 1.55,-1 3.2,-8 4.09,-8.73 0.89,-0.73 -3.52,-4.86 -4.47,-8 -0.95,-3.14 -8.99,-16.06 -8.99,-16.06 z"
       id="path132" />
    <path
       class="cls-6"
       d="m 841,682.86 c 0,0 9.21,-0.47 6.78,-7.14 -2.43,-6.67 -6.4,-4.11 -6.4,-4.11 l -0.12,0.94 -3.72,0.22 0.63,1.53 -3.5,2.26 c 0,0 0.81,7.19 6.33,6.3 z"
       id="path134" />
    <path
       class="cls-6"
       d="m 839.41,691.6 4.59,-10.15 -5.86,-4.52 c 0,0 -5.31,8.35 -8.2,8.94 -2.89,0.59 9.47,5.73 9.47,5.73 z"
       id="path136" />
    <path
       class="cls-2"
       d="m 844.31,683.21 -4.49,-3.9 a 20.12,20.12 0 0 0 2.83,-3.09 c 0.44,-0.92 -2.2,-0.15 -2.2,-0.15 l -0.17,-1.05 3.39,-1 v -3.27 c 0,0 3.26,-1 4.89,2.66 2.52,5.59 -1.17,9.8 -4.25,9.8 z"
       id="path138" />
    <path
       class="cls-18"
       d="m 842.42,674.83 a 2.42,2.42 0 0 1 -0.65,-3.09"
       id="path140" />
    <rect
       class="cls-2"
       x="757.78998"
       y="596.03003"
       width="77.089996"
       height="105.62"
       rx="10.77"
       transform="rotate(-130.89,796.33229,648.8352)"
       id="rect142" />
    <polygon
       class="cls-2"
       points="852.57,648.16 851.03,638.74 857.87,638.18 856.81,644.72 "
       id="polygon144" />
    <polygon
       class="cls-2"
       points="738.33,659.03 740.51,652.08 736.6,648.57 735.63,654.58 "
       id="polygon146" />
    <rect
       class="cls-5"
       x="758.75"
       y="590.01001"
       width="77.089996"
       height="105.62"
       rx="10.77"
       transform="rotate(-130.89,797.30104,642.82028)"
       id="rect148" />
    <rect
       class="cls-9"
       x="768.53003"
       y="603.40002"
       width="57.549999"
       height="78.839996"
       rx="8.04"
       transform="rotate(-130.89,797.30104,642.82028)"
       id="rect150" />
    <circle
       class="cls-9"
       cx="762.82001"
       cy="672.91998"
       r="3.2"
       id="circle152" />
    <circle
       class="cls-9"
       cx="830.59003"
       cy="611.14001"
       r="1.34"
       id="circle154" />
    <path
       class="cls-2"
       d="m 784,656.53 -6,-6.74 -3.5,5.67 c 0,0 3.87,7.93 6.33,7.86 2.46,-0.07 4.61,-0.73 4.28,-3.18 A 8.79,8.79 0 0 0 784,656.53 Z"
       id="path156" />
    <path
       class="cls-2"
       d="m 784.23,660.55 1.07,8.39 -4.87,1.2 a 47.77,47.77 0 0 1 -0.08,-8.13 c 0.41,-2.92 3.88,-1.46 3.88,-1.46 z"
       id="path158" />
    <path
       class="cls-2"
       d="m 785.58,654.76 c -0.46,1.08 0,1.64 -0.44,3 -0.44,1.36 -2.61,0.18 -3.1,1.82 -0.49,1.64 0.12,3.49 1.17,3.44 1.05,-0.05 4.28,-1.34 4.19,-8.76 0,0.05 -1.4,-0.58 -1.82,0.5 z"
       id="path160" />
    <path
       class="cls-8"
       d="m 785.28,659.73 -6.32,6 c 0,0 4.51,24.13 9.69,27.58 5.18,3.45 28.09,6.53 28.09,6.53 l 6.17,-14 c 0,0 -10.59,0.08 -12,-0.46 a 5.89,5.89 0 0 0 -4.56,0.33 c -1.71,0.73 -8.4,-1.81 -9.52,-1.48 -1.12,0.33 -1.86,-5.6 -3.88,-8.16 -2.02,-2.56 -7.67,-16.34 -7.67,-16.34 z"
       id="path162" />
    <line
       class="cls-19"
       x1="820.77002"
       y1="732.52002"
       x2="852.83002"
       y2="732.52002"
       id="line164" />
    <path
       class="cls-2"
       d="m 275.19,737.58 9.32,-1.9 1.57,5.48 a 51.77,51.77 0 0 1 -9.07,0.74 c -3.28,-0.23 -1.82,-4.32 -1.82,-4.32 z"
       id="path166" />
    <polygon
       class="cls-8"
       points="290.1,866.71 293.23,849.45 301.53,850.23 296.6,867.61 "
       id="polygon168" />
    <polygon
       class="cls-5"
       points="316.79,881.83 284.82,881.83 290.57,862.26 298.29,863.87 298.29,873.03 "
       id="polygon170" />
    <polygon
       class="cls-8"
       points="260.76,840.03 259.61,822.52 251.28,822.35 254.2,840.18 "
       id="polygon172" />
    <polygon
       class="cls-5"
       points="232.51,852 264.27,855.65 260.8,835.55 252.94,836.27 251.9,845.37 "
       id="polygon174" />
    <path
       class="cls-8"
       d="m 333.32,722.56 c 0,0 14.4,14.16 10,25.84 C 338.92,760.08 300,750 300,750 l 2.12,-23.5 29.15,-6.06"
       id="path176" />
    <path
       class="cls-8"
       d="m 245.79,682 -16.29,5.7 c 0,0 11.17,25 21.78,28.42 10.61,3.42 30.89,-3.79 35.24,-7.57 4.35,-3.78 -2.46,-15.55 -2.46,-15.55 0,0 -16.1,2.84 -21,5.12 z"
       id="path178" />
    <path
       class="cls-8"
       d="m 278,699.52 13.83,-16 12.17,-4.34 c 0,0 18.95,-1.52 21.22,5.49 2.27,7.01 8.15,37.89 8.15,37.89 l -29.75,9.67 z"
       id="path180" />
    <path
       class="cls-8"
       d="m 322.36,746.05 c 0,0 -59.13,-5.62 -67.76,25.52 -8.63,31.14 -11,53.68 -11,53.68 l 24.28,3.39 c 0,0 6.83,-37.88 2.89,-41.79 L 315.6,772.2 Z"
       id="path182" />
    <path
       class="cls-8"
       d="m 344.12,744.35 c 0,0 -7.58,43.58 -18,54.95 l -17.25,59.7 -29.38,-14.8 35.26,-50.59 c 0,0 -6.25,-18.94 -6.82,-31.26 L 307.36,750 Z"
       id="path184" />
    <path
       class="cls-2"
       d="m 272.89,734.56 -10.29,0.94 2.66,6.91 c 0,0 9.9,1.74 11.56,-0.53 1.66,-2.27 2.59,-4.66 0.14,-6 a 9.85,9.85 0 0 0 -4.07,-1.32 z"
       id="path186" />
    <path
       class="cls-20"
       d="m 263.17,737 a 20.46,20.46 0 0 0 7.93,-0.79"
       id="path188" />
    <path
       class="cls-20"
       d="m 264,739 a 20.34,20.34 0 0 0 7.63,-0.82"
       id="path190" />
    <path
       class="cls-20"
       d="m 264.75,741.08 a 20.28,20.28 0 0 0 7.17,-0.85"
       id="path192" />
    <path
       class="cls-2"
       d="m 229.51,658 -10.23,-1.45 1,7.34 c 0,0 9.23,4 11.37,2.13 2.14,-1.87 3.59,-3.93 1.5,-5.78 A 9.86,9.86 0 0 0 229.51,658 Z"
       id="path194" />
    <path
       class="cls-2"
       d="m 232.64,661.2 7.07,6.36 -3.48,4.53 a 52.63,52.63 0 0 1 -6,-6.86 c -1.75,-2.77 2.41,-4.03 2.41,-4.03 z"
       id="path196" />
    <path
       class="cls-2"
       d="m 229.63,655.3 c 0.37,1.25 1.17,1.41 1.83,2.92 0.66,1.51 -2.2,2 -1.45,3.77 0.75,1.77 2.66,2.89 3.56,2.08 0.9,-0.81 2.84,-4.22 -2.64,-10.47 0,0 -1.68,0.46 -1.3,1.7 z"
       id="path198" />
    <polygon
       class="cls-2"
       points="301.8,688.72 302.13,688.72 304,688.76 299.01,676.86 297.95,674.32 296.72,671.38 290.82,673.83 288.26,674.89 287.26,675.31 287.45,679.27 287.89,688.43 299.55,688.67 "
       id="polygon200" />
    <path
       class="cls-8"
       d="m 287.89,688.43 11.66,0.24 2.25,0.05 h 0.34 a 6.14,6.14 0 0 0 -1.57,-2.69 c -1.72,-1.59 -7,-1.62 -6,-3.9 1,-2.28 -2.11,-4.65 -2.11,-4.65 l -4.18,-2.59 -1,0.42 0.19,4 z"
       id="path202" />
    <path
       class="cls-2"
       d="m 281.1,668.69 c 3.84,6.16 11.9,13.43 17.73,7.73 a 5.89,5.89 0 0 0 0.42,-0.45 c 4.37,-5.12 -2.35,-13.62 -5.24,-16.83 a 3,3 0 0 0 -3.11,-0.89 18,18 0 0 0 -9.74,7.15 3.09,3.09 0 0 0 -0.51,1.48 2.94,2.94 0 0 0 0.45,1.81 z"
       id="path204" />
    <path
       class="cls-8"
       d="m 296.66,671.32 -2.66,2.45 c 0,0 -0.64,-1.47 0.11,-1.75 0.75,-0.28 0.91,-0.95 1.17,-1 a 4.36,4.36 0 0 1 1.38,0.3 z"
       id="path206" />
    <path
       class="cls-8"
       d="m 296.62,672.13 c 0,0 0.28,0.82 -0.87,1.16 -1.15,0.34 -1.18,0.59 -1.17,0.62 0.01,0.03 0.77,-0.27 0.74,0 -0.03,0.27 -0.14,0.5 0,0.66 0.14,0.16 0.2,-0.7 0.64,-0.95 0.44,-0.25 1.38,-0.76 0.66,-1.49 z"
       id="path208" />
    <path
       class="cls-21"
       d="m 293.66,661.38 c 0,0 -4,2.27 -2.9,4.31 a 18.43,18.43 0 0 0 3.57,4.09 l -1,1.15 c 0,0 -3.91,-3.79 -4.58,-3.76 a 4.68,4.68 0 0 0 -4.42,3.12"
       id="path210" />
    <path
       class="cls-21"
       d="M 294.88,664 A 2.26,2.26 0 0 1 293,666"
       id="path212" />
    <path
       class="cls-21"
       d="m 289.1,669.24 a 2.25,2.25 0 0 1 -1.89,2.08"
       id="path214" />
    <ellipse
       class="cls-8"
       cx="284.35001"
       cy="673.33002"
       rx="1.08"
       ry="2.23"
       transform="rotate(-53.52,284.40124,673.3698)"
       id="ellipse216" />
    <ellipse
       class="cls-2"
       cx="298.13"
       cy="664.33002"
       rx="1.08"
       ry="2.23"
       transform="rotate(-19.51,298.03176,664.19472)"
       id="ellipse218" />
    <path
       class="cls-8"
       d="m 281.1,668.69 c 3.84,6.16 11.9,13.43 17.73,7.73 a 5.89,5.89 0 0 0 0.42,-0.45 c -0.43,-0.69 -1.4,-2 -2.38,-1.31 -1.31,0.87 -2.09,2.2 -3.53,1.87 -1.44,-0.33 -4.8,-2.44 -4.07,-3.54 0.73,-1.1 0,-1.9 -1,-1 -1,0.9 -5.23,-2.1 -6,-3.43 -0.55,-0.91 -1.12,-1.6 -1.56,-1.71 a 2.94,2.94 0 0 0 0.39,1.84 z"
       id="path220" />
    <path
       class="cls-22"
       d="m 287.19,675.62 c 2.79,2.19 5.92,3.48 8.81,2.57"
       id="path222" />
    <path
       class="cls-22"
       d="m 294,663.09 a 2.36,2.36 0 0 0 -2.11,2.58"
       id="path224" />
    <path
       class="cls-22"
       d="m 288.34,668.72 a 2.13,2.13 0 0 0 -2,1.94"
       id="path226" />
    <path
       class="cls-22"
       d="m 290.3,663.9 c 0,0 -1.62,1.5 3.29,5.92"
       id="path228" />
    <path
       class="cls-23"
       d="m 277.44,705.54 a 32.88,32.88 0 0 0 14.15,0.19"
       id="path230" />
    <path
       class="cls-23"
       d="m 277.94,708.83 a 32.74,32.74 0 0 0 14.15,0.2"
       id="path232" />
    <path
       class="cls-23"
       d="m 278.17,712 a 32.74,32.74 0 0 0 14.15,0.2"
       id="path234" />
    <rect
       class="cls-5"
       x="236.41"
       y="657.07001"
       width="46.419998"
       height="74.900002"
       transform="rotate(138.11,259.60004,694.54031)"
       id="rect236" />
    <rect
       class="cls-9"
       x="238.73"
       y="663.53003"
       width="37.490002"
       height="56.529999"
       transform="rotate(138.11,257.45351,691.82123)"
       id="rect238" />
    <circle
       class="cls-9"
       cx="280.51001"
       cy="717.47998"
       r="4.6900001"
       id="circle240" />
    <polyline
       class="cls-5"
       points="266.46 744.6 267.34 737.9 217.34 682.14 216.51 690.9"
       id="polyline242" />
    <polygon
       class="cls-5"
       points="266.46,744.6 302.19,709.25 301.91,706.9 267.34,737.9 "
       id="polygon244" />
    <path
       class="cls-9"
       d="m 279.25,724.38 0.29,18.83 c 0,0 29.76,-3 36.94,-12.8 7.18,-9.8 6.69,-33.31 4.26,-39.13 -1.36,-3.26 -6.52,-3.74 -10.8,-3.53 a 7.34,7.34 0 0 0 -6.9,6.44 c -0.71,5.69 -1.59,14.13 -1.17,17.86 z"
       id="path246" />
    <path
       class="cls-24"
       d="m 279.54,743.21 a 115.25,115.25 0 0 0 28.23,-6.7"
       id="path248" />
    <path
       class="cls-2"
       d="m 266.77,740.84 c 1.23,-0.43 1.83,0.11 3.44,-0.25 1.61,-0.36 0.32,-3 2.17,-3.41 1.85,-0.41 3.9,0.42 3.79,1.62 -0.11,1.2 -1.71,4.8 -10,4.1 0.01,0 -0.62,-1.62 0.6,-2.06 z"
       id="path250" />
    <path
       class="cls-8"
       d="m 288.39,658.88 c 0,0 2,-4 -0.64,-4.29 -2.64,-0.29 -2.12,4.54 -2.12,4.54 0,0 -0.9,-1.38 -1.94,-0.88 -1.04,0.5 -0.47,3.88 -0.47,3.88 0,0 -0.41,-1.17 -1.31,-0.56 -0.9,0.61 -0.85,4 -0.85,4 0,0 -1.91,-0.41 -2.08,0.23 -0.17,0.64 1.37,0.57 1.37,0.57 0,0 -1.49,0.65 -1.35,1.24 0.14,0.59 2.47,-0.18 2.47,-0.18"
       id="path252" />
    <path
       class="cls-8"
       d="m 554.78,789.54 c 0,0 -67.51,-7.9 -81.73,10.51 -14.22,18.41 -48.28,65.3 -48.28,65.3 l 37.76,20.39 c 0,0 26.84,-42.5 28,-56.89 0,0 48.07,3 64.21,-4 0,0 -34.67,37.65 -33.42,53.91 C 522.57,895.02 549,942 549,942 l 33.33,-22.31 -21.64,-43.3 c 0,0 35.48,-12 46,-62.33 10.52,-50.33 -51.91,-24.52 -51.91,-24.52 z"
       id="path254" />
    <path
       class="cls-8"
       d="m 508.48,681.39 -23.79,5.8 c 0,0 -10.69,34.31 16.31,57.35 0,0 22.42,13.12 50,-20.88 27.58,-34 4.46,-45.66 -30.77,-10.66 z"
       id="path256" />
    <path
       class="cls-8"
       d="m 553.27,691.78 c 0,0 23.45,-3.95 34.4,-5.72 10.95,-1.77 32.63,1 32.63,1 l 25.06,22 -4.21,30.74 c 0,0 -32.32,42.74 -35.15,65.2 l -51.22,-14.1 c 0,0 5.33,-43.79 5.42,-47.62 0.09,-3.83 -10.54,-24.72 -9,-31.12 1.54,-6.4 2.07,-20.38 2.07,-20.38 z"
       id="path258" />
    <polygon
       class="cls-8"
       points="443.03,892.62 449.69,874.38 441.33,870.49 436.32,889.84 "
       id="polygon260" />
    <polygon
       class="cls-5"
       points="409.09,892.12 439.61,910 445.07,888.1 436.79,885.32 431.67,894.07 "
       id="polygon262" />
    <polygon
       class="cls-8"
       points="580.03,941.43 569.23,925.29 561.16,929.75 573.83,945.2 "
       id="polygon264" />
    <polygon
       class="cls-5"
       points="559.61,968.54 592.04,954.44 577.58,937.12 570.46,942.16 574.5,951.46 "
       id="polygon266" />
    <path
       class="cls-6"
       d="M 636.33,682.66 624.86,702 603.42,691.95 c 0,0 1.2,2.11 7.21,-4 a 78.9,78.9 0 0 0 9.56,-11.31 c 0.34,-0.53 0.64,-1 0.9,-1.54 4.91,-9.1 15.24,7.56 15.24,7.56 z"
       id="path268" />
    <path
       class="cls-2"
       d="m 628.45,688.85 c -1.67,1.17 -3.34,-1.66 -7,-1.66 -3.66,0 -4.64,5.4 -9,3.43 a 2.74,2.74 0 0 1 -1.8,-2.68 78.9,78.9 0 0 0 9.56,-11.31 c 3.67,0.88 9.29,2.4 10.95,3.8 2.51,2.12 -1.05,7.25 -2.71,8.42 z"
       id="path270" />
    <path
       class="cls-6"
       d="m 623.71,660.67 -1.93,1.64 2.84,2.52 -11.29,3.95 6.15,5.45 c 0,0 -2.92,4.53 2.35,9.21 7.17,6.36 32,-5.81 13.65,-22.58 a 8.92,8.92 0 0 0 -11.77,-0.19 z"
       id="path272" />
    <ellipse
       class="cls-25"
       cx="629.65002"
       cy="669.67999"
       rx="3.0599999"
       ry="2.99"
       transform="rotate(-28.2,629.77401,669.77355)"
       id="ellipse274" />
    <ellipse
       class="cls-25"
       cx="622.60999"
       cy="663.67999"
       rx="3.0599999"
       ry="2.99"
       transform="rotate(-28.2,622.75196,663.77738)"
       id="ellipse276" />
    <polygon
       class="cls-6"
       points="628.14,665.42 619.48,674.23 613.33,668.78 626.66,664.11 "
       id="polygon278" />
    <line
       class="cls-25"
       x1="627.63"
       y1="667.46997"
       x2="624.23999"
       y2="664.46002"
       id="line280" />
    <polyline
       class="cls-26"
       points="632.33 671.04 639.84 677.7 639.23 679.06"
       id="polyline282" />
    <ellipse
       class="cls-6"
       cx="637.66998"
       cy="680.14001"
       rx="2.8499999"
       ry="3.4000001"
       transform="rotate(-62.04,637.59874,680.12485)"
       id="ellipse284" />
    <path
       class="cls-2"
       d="m 630.33,658.59 c 0,0 -3,-4.12 -4.21,-3.56 -1.21,0.56 -0.53,2 0.07,2.36 0.6,0.36 -2,-0.92 -2.69,0 -0.69,0.92 5.66,3.45 5.66,3.45 0,0 -2.54,-0.13 -2.45,0.63 0.09,0.76 4.73,0.58 4.73,0.58 z"
       id="path286" />
    <path
       class="cls-27"
       d="m 505.09,710.92 a 53.9,53.9 0 0 1 -22.85,-4.29"
       id="path288" />
    <path
       class="cls-27"
       d="m 503.21,716.06 a 53.72,53.72 0 0 1 -22.85,-4.29"
       id="path290" />
    <path
       class="cls-27"
       d="M 501.8,721.16 A 53.87,53.87 0 0 1 479,716.87"
       id="path292" />
    <rect
       class="cls-5"
       x="499.23001"
       y="637.47998"
       width="76.260002"
       height="123.03"
       transform="rotate(53.32,537.35264,698.95691)"
       id="rect294" />
    <rect
       class="cls-9"
       x="510.91"
       y="648.87"
       width="61.59"
       height="92.860001"
       transform="rotate(53.32,541.69216,695.28186)"
       id="rect296" />
    <circle
       class="cls-9"
       cx="496.26001"
       cy="729.15002"
       r="7.6999998"
       id="circle298" />
    <polyline
       class="cls-2"
       points="510.05 777.38 510.81 766.31 609.47 692.82 607.95 707.2"
       id="polyline300" />
    <polygon
       class="cls-1"
       points="510.05,777.38 464.03,708.84 465.25,705.16 510.81,766.31 "
       id="polygon302" />
    <line
       class="cls-28"
       x1="483.89999"
       y1="691.90002"
       x2="465.57999"
       y2="705.54999"
       id="line304" />
    <polyline
       class="cls-28"
       points="517.86 665.97 563.91 631.66 569.81 639.58"
       id="polyline306" />
    <line
       class="cls-28"
       x1="573.73999"
       y1="644.85999"
       x2="609.46997"
       y2="692.82001"
       id="line308" />
    <polygon
       class="cls-8"
       points="586.64,799.43 595.58,780.98 613.63,783.43 606.42,815.43 "
       id="polygon310" />
    <path
       class="cls-6"
       d="m 482.18,689.87 c 0,0 0.57,-4.6 8.23,-10.42 7.66,-5.82 9.86,-0.49 9.86,-0.49 0,0 -5.49,10.3 -7.45,11.11 -1.96,0.81 -1.91,-2.51 -1.91,-2.51 0,0 -2.93,6.28 -4.24,6.13 -1.31,-0.15 -1,-4.12 -1,-4.12 0,0 -2.17,5 -3.14,4.52 -0.97,-0.48 -0.35,-4.22 -0.35,-4.22 z"
       id="path312" />
    <path
       class="cls-8"
       d="m 645.36,709.06 c 0,0 14.95,16.63 -3.51,35.1 -18.46,18.47 -37.59,30.55 -59.49,34.23 -21.9,3.68 -46.87,3.41 -61.49,-11.39 l 24.77,-23.25 42.93,10.11 c 0,0 22.27,-24.91 30.75,-28.79 8.48,-3.88 26.04,-16.01 26.04,-16.01 z"
       id="path314" />
    <path
       class="cls-28"
       d="m 591.46,750.66 c 4,-4.32 11.43,-12.21 18,-18.2"
       id="path316" />
    <line
       class="cls-28"
       x1="545.64001"
       y1="743.71997"
       x2="578.21002"
       y2="751.39001"
       id="line318" />
    <path
       class="cls-28"
       d="m 615,765.87 a 90.86,90.86 0 0 1 -32.62,12.52 c -18,3 -38,3.38 -52.67,-4.77"
       id="path320" />
    <path
       class="cls-28"
       d="m 647.58,720.22 c -8.85,-6.7 -17.59,-4.82 -26.26,2.21"
       id="path322" />
    <path
       class="cls-6"
       d="m 538.24,750.66 c 0,0 -1.38,-4.31 -1.77,-5.95 -0.39,-1.64 -5,-2.05 -6.78,-3.44 -1.78,-1.39 -2.79,0 -2.79,0 l 3.83,4.39 -11.49,-5.66 -6,6.51 c 0,0 12,9.74 19.33,9.46 7.33,-0.28 5.67,-4.59 5.67,-4.59"
       id="path324" />
    <path
       class="cls-28"
       d="m 534,849.81 c 9.88,-15.24 21.06,-27.3 34.29,-34.38"
       id="path326" />
    <path
       class="cls-28"
       d="m 488,822 a 15.63,15.63 0 0 1 2,11.46"
       id="path328" />
    <line
       class="cls-29"
       x1="426.59"
       y1="394.98999"
       x2="452.57999"
       y2="609.53003"
       id="line330" />
    <polygon
       class="cls-9"
       points="461.88,605.54 442.59,607.88 454.26,623.42 "
       id="polygon332" />
    <line
       class="cls-30"
       x1="426.59"
       y1="394.98999"
       x2="435.47"
       y2="468.31"
       id="line334" />
    <path
       class="cls-1"
       d="m 804.19,697.82 a 7.22,7.22 0 0 1 3.34,2.82 c 1.64,2.3 1.64,-4.38 1.64,-4.38 h -4.51 z"
       id="path336" />
    <polygon
       class="cls-6"
       points="537.56,621.4 482.13,568.58 530.08,518.26 566.36,517.78 603.02,552.71 "
       id="polygon338" />
    <polygon
       class="cls-2"
       points="550.27,549.86 530.08,518.26 566.36,517.78 "
       id="polygon340" />
    <path
       class="cls-9"
       d="m 523.88,556.83 6.73,4.39 q -3.86,3.74 -7.72,7.46 c -0.4,0.39 -0.83,0.74 -1.33,1.18 a 9.47,9.47 0 0 0 -7,-4.7 c -4.56,-0.66 -8,2.76 -7.07,7.06 a 8.65,8.65 0 0 0 6,6.48 7.35,7.35 0 0 0 8.17,-2 c 4.26,-4.23 8.63,-8.35 12.92,-12.55 l 0.25,-0.23 13,8.52 -8.73,8.56 c -2,-1.34 -3.64,-2.91 -5.62,-3.73 -4.92,-2 -9.65,1.25 -9,6.1 0.48,3.4 2.66,5.61 5.77,6.83 a 7.27,7.27 0 0 0 8,-1.38 c 0.51,-0.46 1,-0.94 1.47,-1.41 q 6.22,-6 12.44,-12 l 6.85,4.47 9.06,-4.66 -35.18,-23 z"
       id="path342" />
    <polygon
       class="cls-2"
       points="659.41,862.86 656.23,887.64 676.1,902.8 699.15,893.16 702.34,868.38 682.47,853.23 "
       id="polygon344" />
    <polygon
       class="cls-1"
       points="784.62,537.23 753.37,569.13 724.41,540.76 724.42,519.6 745.09,498.51 "
       id="polygon346" />
    <polygon
       class="cls-2"
       points="743,529.25 724.41,540.76 724.42,519.6 "
       id="polygon348" />
    <polygon
       class="cls-9"
       points="760.25,538.38 759.87,530.23 772.58,532.52 750.93,554.62 746.33,535.51 "
       id="polygon350" />
    <circle
       class="cls-9"
       cx="741.65997"
       cy="543.54999"
       r="2.3"
       id="circle352" />
    <polygon
       class="cls-15"
       points="335.81,613.07 316.42,572.37 353.37,554.76 373.43,562.12 386.25,589.04 "
       id="polygon354" />
    <polygon
       class="cls-6"
       points="357.83,576.38 353.37,554.76 373.43,562.12 "
       id="polygon356" />
    <path
       class="cls-3"
       d="m 346.07,585.35 c 0,0 14.81,5.71 16.11,2.57 1.3,-3.14 -21.73,-2.32 -22.76,6.91 -1.03,9.23 8.26,-2.2 2.88,-11.54 -5.38,-9.34 -12.27,-11.11 -9.64,-6.23 2.63,4.88 13.41,8.29 13.41,8.29 z"
       id="path358" />
  </g>
</svg>
