<?xml version="1.0" encoding="UTF-8" standalone="no"?>
<svg
   height="48"
   viewBox="0 -960 960 960"
   width="48"
   version="1.1"
   id="svg135"
   sodipodi:docname="diversity.svg"
   inkscape:version="1.2.2 (b0a8486541, 2022-12-01)"
   xmlns:inkscape="http://www.inkscape.org/namespaces/inkscape"
   xmlns:sodipodi="http://sodipodi.sourceforge.net/DTD/sodipodi-0.dtd"
   xmlns="http://www.w3.org/2000/svg"
   xmlns:svg="http://www.w3.org/2000/svg">
  <defs
     id="defs139" />
  <sodipodi:namedview
     id="namedview137"
     pagecolor="#ffffff"
     bordercolor="#000000"
     borderopacity="0.25"
     inkscape:showpageshadow="2"
     inkscape:pageopacity="0.0"
     inkscape:pagecheckerboard="0"
     inkscape:deskcolor="#d1d1d1"
     showgrid="false"
     inkscape:zoom="4.9166667"
     inkscape:cx="23.898305"
     inkscape:cy="24.101695"
     inkscape:window-width="1504"
     inkscape:window-height="942"
     inkscape:window-x="0"
     inkscape:window-y="0"
     inkscape:window-maximized="1"
     inkscape:current-layer="svg135" />
  <path
     d="M40-160v-160q0-29 20.5-49.5T110-390h141q17 0 32.5 8.5T310-358q29 42 74 65t96 23q51 0 96-23t75-65q11-15 26-23.5t32-8.5h141q29 0 49.5 20.5T920-320v160H660v-119q-36 33-82.5 51T480-210q-51 0-97-18t-83-51v119H40Zm440-170q-35 0-67.5-16.5T360-392q-16-23-38.5-37T273-448q29-30 91-46t116-16q54 0 116.5 16t91.5 46q-26 5-48.5 19T601-392q-20 29-52.5 45.5T480-330ZM160-460q-45 0-77.5-32.5T50-570q0-46 32.5-78t77.5-32q46 0 78 32t32 78q0 45-32 77.5T160-460Zm640 0q-45 0-77.5-32.5T690-570q0-46 32.5-78t77.5-32q46 0 78 32t32 78q0 45-32 77.5T800-460ZM480-580q-45 0-77.5-32.5T370-690q0-46 32.5-78t77.5-32q46 0 78 32t32 78q0 45-32 77.5T480-580Z"
     id="path133"
     style="fill:#ffffff" />
</svg>
