<?xml version="1.0" encoding="UTF-8" standalone="no"?>
<svg
   width="16"
   height="16"
   fill="currentColor"
   class="bi bi-github"
   viewBox="0 0 16 16"
   version="1.1"
   id="svg99"
   sodipodi:docname="github.svg"
   inkscape:version="1.1.2 (0a00cf5339, 2022-02-04)"
   xmlns:inkscape="http://www.inkscape.org/namespaces/inkscape"
   xmlns:sodipodi="http://sodipodi.sourceforge.net/DTD/sodipodi-0.dtd"
   xmlns="http://www.w3.org/2000/svg"
   xmlns:svg="http://www.w3.org/2000/svg">
  <defs
     id="defs103" />
  <sodipodi:namedview
     id="namedview101"
     pagecolor="#ffffff"
     bordercolor="#666666"
     borderopacity="1.0"
     inkscape:pageshadow="2"
     inkscape:pageopacity="0.0"
     inkscape:pagecheckerboard="0"
     showgrid="false"
     inkscape:zoom="47.8125"
     inkscape:cx="7.9895425"
     inkscape:cy="8"
     inkscape:window-width="1920"
     inkscape:window-height="1016"
     inkscape:window-x="1920"
     inkscape:window-y="27"
     inkscape:window-maximized="1"
     inkscape:current-layer="svg99" />
  <path
     d="M8 0C3.58 0 0 3.58 0 8c0 3.54 2.29 6.53 5.47 7.59.4.07.55-.17.55-.38 0-.19-.01-.82-.01-1.49-2.01.37-2.53-.49-2.69-.94-.09-.23-.48-.94-.82-1.13-.28-.15-.68-.52-.01-.53.63-.01 1.08.58 1.23.82.72 1.21 1.87.87 2.33.66.07-.52.28-.87.51-1.07-1.78-.2-3.64-.89-3.64-3.95 0-.87.31-1.59.82-2.15-.08-.2-.36-1.02.08-2.12 0 0 .67-.21 2.2.82.64-.18 1.32-.27 2-.27.68 0 1.36.09 2 .27 1.53-1.04 2.2-.82 2.2-.82.44 1.1.16 1.92.08 2.12.51.56.82 1.27.82 2.15 0 3.07-1.87 3.75-3.65 3.95.29.25.54.73.54 1.48 0 1.07-.01 1.93-.01 2.2 0 .21.15.46.55.38A8.012 8.012 0 0 0 16 8c0-4.42-3.58-8-8-8z"
     id="path97" />
  <path
     style="opacity:0.91;fill:#9205d1;stroke-width:0;stroke-opacity:0.803922;fill-opacity:1"
     d="M 5.4379085,15.568583 C 4.2878756,15.150239 3.3792529,14.606302 2.5721922,13.853054 1.1334953,12.510286 0.27208249,10.79022 0.04946744,8.8156863 0.01359078,8.4974701 0.01337902,7.4973568 0.04912203,7.1843137 0.1653301,6.1665445 0.42914439,5.2770064 0.8772045,4.3921569 2.0181659,2.138934 4.1674683,0.54990063 6.6459668,0.12716572 7.1446159,0.04211568 7.4147919,0.02091503 8,0.02091503 c 0.5852081,0 0.8553841,0.02120065 1.3540332,0.10625069 3.0768648,0.52479283 5.5824528,2.82613458 6.3741288,5.85453358 0.186661,0.7140351 0.249827,1.2225918 0.249388,2.0078432 -3.49e-4,0.6252752 -0.02657,0.9337882 -0.12444,1.4640523 -0.420943,2.2807272 -1.825883,4.2751462 -3.844919,5.4581532 -0.52882,0.309849 -1.399673,0.680843 -1.596083,0.67995 -0.122338,-5.57e-4 -0.255562,-0.05755 -0.316949,-0.135592 -0.09006,-0.114493 -0.09339,-0.169726 -0.08137,-1.349617 0.01213,-1.189971 0.0019,-1.452559 -0.067854,-1.748304 C 9.891239,12.126404 9.7283683,11.789764 9.6016464,11.646571 l -0.095292,-0.107678 0.1827683,-0.02466 c 0.3419003,-0.04613 0.8094793,-0.150262 1.0919213,-0.243166 0.547467,-0.180081 0.96974,-0.420996 1.313904,-0.749607 0.433674,-0.414078 0.705402,-0.8965281 0.872971,-1.5499555 0.116885,-0.4557869 0.143914,-0.7019324 0.14458,-1.3166015 5.27e-4,-0.4873184 -0.0043,-0.5659202 -0.04629,-0.7568818 C 12.95578,6.3959898 12.729703,5.927264 12.408407,5.5341816 l -0.09226,-0.1128771 0.03756,-0.113851 c 0.170792,-0.5177042 0.151271,-1.191986 -0.05218,-1.8024807 l -0.06623,-0.1987249 -0.08366,-0.017762 C 12.038213,3.264406 11.73006,3.302185 11.502862,3.3680245 11.101864,3.484229 10.579673,3.7398889 10.145997,4.0323328 10.025541,4.1135607 10.020503,4.1149254 9.9263891,4.0918231 9.6292009,4.0188712 9.3332919,3.9604053 9.0457516,3.9178261 8.7571668,3.8750923 8.6446306,3.8698585 8.020915,3.870163 7.1974647,3.8705646 6.9131639,3.900974 6.2535948,4.0591956 L 6.0235294,4.1143852 5.8248366,3.9893112 C 5.109185,3.5388193 4.4828978,3.2945698 4.0270894,3.288197 3.9283454,3.286817 3.8363022,3.292637 3.8225483,3.301142 3.8087943,3.309642 3.7694033,3.4044371 3.7350133,3.5117971 3.5429362,4.1114221 3.5192892,4.6760843 3.6632623,5.2251227 l 0.053892,0.2055149 -0.064425,0.076838 C 3.4248061,5.7793142 3.2055176,6.1644532 3.0873757,6.5004131 2.9720671,6.8283162 2.9361615,7.0482244 2.9236618,7.5030988 c -0.013384,0.4870291 0.013078,0.8230467 0.098425,1.2498424 0.1467878,0.7340432 0.4423306,1.3040598 0.9083733,1.7519898 0.5753435,0.552983 1.3268694,0.860995 2.4859242,1.018856 l 0.1000441,0.01363 -0.1037607,0.130398 c -0.057068,0.07172 -0.1369573,0.196544 -0.1775303,0.277388 -0.075942,0.151319 -0.1802353,0.477006 -0.1802353,0.562836 0,0.07205 -0.044793,0.104817 -0.2245014,0.164215 -0.2550937,0.08432 -0.450149,0.117292 -0.6937817,0.117292 -0.575981,0 -1.021087,-0.26521 -1.3885139,-0.827326 C 3.49823,11.579939 3.2245819,11.328185 2.9117551,11.19278 2.7694433,11.13118 2.7457391,11.12741 2.4984719,11.12712 2.1856153,11.12674 2.1228758,11.1513 2.1228758,11.274156 c 0,0.09716 0.1154004,0.222451 0.342898,0.372278 0.09407,0.06195 0.2140106,0.16044 0.2665337,0.218858 0.1984784,0.220756 0.4914168,0.698756 0.6025121,0.983145 0.2039521,0.52209 0.6884961,0.854957 1.3791615,0.947444 0.2176587,0.02915 0.8559023,0.01103 1.100398,-0.03124 0.092026,-0.01591 0.1701768,-0.02641 0.1736682,-0.02333 0.00349,0.0031 0.0082,0.362515 0.010458,0.798749 l 0.00411,0.793154 -0.057427,0.08706 c -0.031585,0.04788 -0.08763,0.10268 -0.1245452,0.121769 -0.082299,0.04256 -0.2976523,0.05749 -0.3827336,0.02655 z"
     id="path1651" />
</svg>
