<?xml version="1.0" encoding="UTF-8" standalone="no"?>
<svg
   width="16"
   height="16"
   fill="currentColor"
   class="bi bi-google-play"
   viewBox="0 0 16 16"
   version="1.1"
   id="svg195"
   sodipodi:docname="google-play.svg"
   inkscape:version="1.1.2 (0a00cf5339, 2022-02-04)"
   xmlns:inkscape="http://www.inkscape.org/namespaces/inkscape"
   xmlns:sodipodi="http://sodipodi.sourceforge.net/DTD/sodipodi-0.dtd"
   xmlns="http://www.w3.org/2000/svg"
   xmlns:svg="http://www.w3.org/2000/svg">
  <defs
     id="defs199" />
  <sodipodi:namedview
     id="namedview197"
     pagecolor="#ffffff"
     bordercolor="#666666"
     borderopacity="1.0"
     inkscape:pageshadow="2"
     inkscape:pageopacity="0.0"
     inkscape:pagecheckerboard="0"
     showgrid="false"
     inkscape:zoom="44.9375"
     inkscape:cx="7.9888734"
     inkscape:cy="6.2197497"
     inkscape:window-width="1920"
     inkscape:window-height="1016"
     inkscape:window-x="1920"
     inkscape:window-y="27"
     inkscape:window-maximized="1"
     inkscape:current-layer="svg195" />
  <path
     d="M14.222 9.374c1.037-.61 1.037-2.137 0-2.748L11.528 5.04 8.32 8l3.207 2.96 2.694-1.586Zm-3.595 2.116L7.583 8.68 1.03 14.73c.201 1.029 1.36 1.61 2.303 1.055l7.294-4.295ZM1 13.396V2.603L6.846 8 1 13.396ZM1.03 1.27l6.553 6.05 3.044-2.81L3.333.215C2.39-.341 1.231.24 1.03 1.27Z"
     id="path193" />
  <path
     style="opacity:0.91;fill:#9205d1;stroke-width:0;stroke-opacity:0.803922;fill-opacity:1"
     d="M 9.9463815,9.4817113 C 9.0783542,8.6806153 8.3652332,8.016423 8.3616683,8.0057282 8.3564544,7.9900865 11.139824,5.40324 11.451837,5.1337443 l 0.08508,-0.073488 1.395345,0.8189678 c 1.324505,0.7773895 1.404581,0.828006 1.577257,0.9969929 0.202489,0.1981635 0.316567,0.3809834 0.407314,0.6527588 0.04988,0.149389 0.05697,0.2079691 0.05697,0.4710242 0,0.2630551 -0.0071,0.3216352 -0.05697,0.4710242 -0.09069,0.271593 -0.204844,0.4545998 -0.407184,0.6527588 -0.172633,0.1690651 -0.251475,0.218905 -1.566502,0.990264 -0.761595,0.446732 -1.392328,0.814931 -1.401627,0.818221 -0.0093,0.0033 -0.727113,-0.649461 -1.5951405,-1.4505567 z"
     id="path1144" />
  <path
     style="opacity:0.91;fill:#9205d1;fill-opacity:1;stroke-width:0;stroke-opacity:0.803922"
     d="M 2.2475661,15.952471 C 2.1618915,15.934446 1.9971496,15.873975 1.881473,15.818091 1.7048031,15.732742 1.6402522,15.685586 1.4780288,15.523362 1.3161629,15.361496 1.2684038,15.296198 1.1829477,15.119918 1.1268707,15.004241 1.0745882,14.868731 1.0667643,14.818784 l -0.014225,-0.09081 3.2524068,-3.002373 c 1.7888235,-1.651305 3.2610107,-3.0054214 3.2715264,-3.0091481 0.013792,-0.00489 2.0560623,1.8621741 3.0006565,2.7432271 0.02338,0.0218 -0.6992363,0.456155 -3.649513,2.193678 -2.0232623,1.191571 -3.7368807,2.19016 -3.8080407,2.219086 -0.2822564,0.114736 -0.5780308,0.141881 -0.8720089,0.08003 z"
     id="path1257" />
  <path
     style="opacity:0.91;fill:#9205d1;fill-opacity:1;stroke-width:0;stroke-opacity:0.803922"
     d="M 1.0125174,8 V 2.6275423 L 1.1182197,2.7297738 C 1.1763561,2.7860011 2.4806676,3.991379 4.0166898,5.4083914 5.5527121,6.8254039 6.8094576,7.9916277 6.8094576,8 c 0,0.00837 -1.2567455,1.1745961 -2.7927678,2.591609 -1.5360222,1.417012 -2.8403337,2.62239 -2.8984701,2.678617 l -0.1057023,0.102232 z"
     id="path1296" />
  <path
     style="opacity:0.91;fill:#9205d1;fill-opacity:1;stroke-width:0;stroke-opacity:0.803922"
     d="M 4.3093049,4.279334 1.0525458,1.2719855 1.0667677,1.1811944 c 0.00782,-0.049935 0.060103,-0.1854356 0.11618,-0.30111224 C 1.2682832,0.7040504 1.316224,0.63844275 1.4770023,0.47766447 1.6361096,0.31855713 1.705394,0.26765094 1.8804465,0.18123686 2.2965763,-0.02418431 2.7029722,-0.04178941 3.119575,0.12755771 3.190735,0.15648394 4.9043534,1.1550728 6.9276157,2.3466441 9.8778924,4.0841673 10.600504,4.5185202 10.577129,4.5403224 9.8749379,5.1952779 7.5935684,7.2877238 7.582141,7.2872912 7.5732987,7.2869574 6.1005223,5.9333757 4.3093049,4.279334 Z"
     id="path1335" />
</svg>
