<?xml version="1.0" encoding="UTF-8" standalone="no"?>
<svg
   viewBox="0 0 27.421972 31.999966"
   version="1.1"
   id="svg1069"
   sodipodi:docname="lines-leaning.svg"
   width="27.421972"
   height="31.999966"
   inkscape:version="1.1.2 (0a00cf5339, 2022-02-04)"
   xmlns:inkscape="http://www.inkscape.org/namespaces/inkscape"
   xmlns:sodipodi="http://sodipodi.sourceforge.net/DTD/sodipodi-0.dtd"
   xmlns="http://www.w3.org/2000/svg"
   xmlns:svg="http://www.w3.org/2000/svg">
  <defs
     id="defs1073" />
  <sodipodi:namedview
     id="namedview1071"
     pagecolor="#ffffff"
     bordercolor="#666666"
     borderopacity="1.0"
     inkscape:pageshadow="2"
     inkscape:pageopacity="0.0"
     inkscape:pagecheckerboard="0"
     showgrid="false"
     inkscape:zoom="1.4042969"
     inkscape:cx="14.242003"
     inkscape:cy="-97.913769"
     inkscape:window-width="1920"
     inkscape:window-height="1016"
     inkscape:window-x="1920"
     inkscape:window-y="27"
     inkscape:window-maximized="1"
     inkscape:current-layer="svg1069" />
  <!--! Font Awesome Pro 6.4.0 by @fontawesome - https://fontawesome.com License - https://fontawesome.com/license (Commercial License) Copyright 2023 Fonticons, Inc. -->
  <path
     d="m 13.595032,3.0105561 c 0.39995,-1.19986 -0.24997,-2.49255995 -1.44269,-2.89250995 -1.19272,-0.39996 -2.4925598,0.24997 -2.8925198,1.44267995 L 0.11804222,28.986066 c -0.39995,1.19986 0.24997,2.49256 1.44268998,2.89252 1.19272,0.39995 2.49256,-0.24997 2.89252,-1.44269 z m 5.06369,-2.97821995 c -1.24272,-0.20712 -2.42115,0.63564 -2.62827,1.87834995 l -4.57089,27.4253399 c -0.20711,1.24271 0.63564,2.42114 1.87835,2.62826 1.24271,0.20712 2.42115,-0.63564 2.62827,-1.87835 l 4.57089,-27.4253399 c 0.20711,-1.24271 -0.63564,-2.42113995 -1.87835,-2.62825995 z m 6.4778,-0.0286 c -1.26413,0 -2.28544,1.02130995 -2.28544,2.28544995 V 29.714526 c 0,1.26413 1.02131,2.28544 2.28544,2.28544 1.26414,0 2.28545,-1.02131 2.28545,-2.28544 V 2.2891861 c 0,-1.26414 -1.02131,-2.28544995 -2.28545,-2.28544995 z"
     id="path1067"
     style="stroke-width:0.999996;fill:#ffffff" />
</svg>
