<?xml version="1.0" encoding="UTF-8" standalone="no"?>
<svg
   width="16"
   height="16"
   fill="currentColor"
   class="bi bi-mastodon"
   viewBox="0 0 16 16"
   version="1.1"
   id="svg187"
   sodipodi:docname="mastodon.svg"
   inkscape:version="1.1.2 (0a00cf5339, 2022-02-04)"
   xmlns:inkscape="http://www.inkscape.org/namespaces/inkscape"
   xmlns:sodipodi="http://sodipodi.sourceforge.net/DTD/sodipodi-0.dtd"
   xmlns="http://www.w3.org/2000/svg"
   xmlns:svg="http://www.w3.org/2000/svg">
  <defs
     id="defs191" />
  <sodipodi:namedview
     id="namedview189"
     pagecolor="#ffffff"
     bordercolor="#666666"
     borderopacity="1.0"
     inkscape:pageshadow="2"
     inkscape:pageopacity="0.0"
     inkscape:pagecheckerboard="0"
     showgrid="false"
     inkscape:zoom="44.9375"
     inkscape:cx="0.84561892"
     inkscape:cy="8"
     inkscape:window-width="1920"
     inkscape:window-height="1016"
     inkscape:window-x="1920"
     inkscape:window-y="27"
     inkscape:window-maximized="1"
     inkscape:current-layer="svg187" />
  <path
     d="M11.19 12.195c2.016-.24 3.77-1.475 3.99-2.603.348-1.778.32-4.339.32-4.339 0-3.47-2.286-4.488-2.286-4.488C12.062.238 10.083.017 8.027 0h-.05C5.92.017 3.942.238 2.79.765c0 0-2.285 1.017-2.285 4.488l-.002.662c-.004.64-.007 1.35.011 2.091.083 3.394.626 6.74 3.78 7.57 1.454.383 2.703.463 3.709.408 1.823-.1 2.847-.647 2.847-.647l-.06-1.317s-1.303.41-2.767.36c-1.45-.05-2.98-.156-3.215-1.928a3.614 3.614 0 0 1-.033-.496s1.424.346 3.228.428c1.103.05 2.137-.064 3.188-.189zm1.613-2.47H11.13v-4.08c0-.859-.364-1.295-1.091-1.295-.804 0-1.207.517-1.207 1.541v2.233H7.168V5.89c0-1.024-.403-1.541-1.207-1.541-.727 0-1.091.436-1.091 1.296v4.079H3.197V5.522c0-.859.22-1.541.66-2.046.456-.505 1.052-.764 1.793-.764.856 0 1.504.328 1.933.983L8 4.39l.417-.695c.429-.655 1.077-.983 1.934-.983.74 0 1.336.259 1.791.764.442.505.661 1.187.661 2.046v4.203z"
     id="path185" />
  <path
     style="opacity:0.91;fill:#9205d1;stroke-width:0;stroke-opacity:0.803922;fill-opacity:1"
     d="M 6.8650904,15.97444 C 5.7383882,15.899525 4.5411006,15.679327 3.8436557,15.418757 1.9858609,14.724671 0.95246651,12.966192 0.64581782,9.9771427 0.54342605,8.9790818 0.52017161,8.3183221 0.52130874,6.439299 0.52249057,4.4864354 0.5456037,4.1932112 0.75592398,3.4628589 1.1001006,2.2676804 1.884089,1.2334191 2.7816412,0.79047059 4.2074619,0.08681782 7.8059861,-0.18864027 10.759388,0.17979389 c 1.262318,0.15747305 2.242733,0.43196235 2.739779,0.76706377 0.930427,0.62727984 1.602945,1.69575534 1.855171,2.94743994 0.105127,0.5216995 0.128666,0.8291278 0.126516,1.6523283 -0.004,1.5152861 -0.115782,3.0076695 -0.295156,3.9391041 -0.08597,0.446412 -0.256151,0.750669 -0.642208,1.148162 -0.380922,0.392206 -0.814888,0.695523 -1.391891,0.972851 -0.891981,0.428718 -1.595539,0.576558 -3.5048674,0.736483 -0.4450464,0.03728 -1.7348442,0.03744 -2.1696801,2.78e-4 -0.8988914,-0.07682 -1.9830741,-0.23263 -2.5675102,-0.36897 l -0.1362451,-0.03178 8.91e-5,0.181615 c 3.338e-4,0.675944 0.2716444,1.31892 0.7002539,1.659521 0.3829839,0.304343 0.8524702,0.464087 1.6139821,0.549162 0.4278324,0.0478 1.4535839,0.0663 1.8491257,0.03335 0.5398158,-0.04497 1.291831,-0.173387 1.694685,-0.289402 l 0.150209,-0.04326 0.0018,0.093 c 9.97e-4,0.05115 0.01351,0.342615 0.02782,0.647694 l 0.026,0.554689 -0.136285,0.06179 c -0.633075,0.287024 -1.6084172,0.502675 -2.60085,0.575055 -0.2816185,0.02054 -0.9813528,0.02534 -1.2350487,0.0085 z M 4.8903039,7.4937413 C 4.8969451,5.4146946 4.9003647,5.2421221 4.9373503,5.1194314 5.0211607,4.8414117 5.1377524,4.6631337 5.3160906,4.5403073 5.4941154,4.417697 5.6741672,4.3694491 5.9560523,4.3688191 c 0.6156014,-0.00138 0.973592,0.2810288 1.1350992,0.8954359 0.04784,0.1819943 0.049608,0.2289442 0.05756,1.5285127 l 0.0082,1.3407511 H 8 8.8430854 l 0.0082,-1.3407511 c 0.00795,-1.2995685 0.00972,-1.3465184 0.05756,-1.5285127 0.1604126,-0.6102429 0.5166932,-0.894398 1.1204686,-0.8936407 0.563866,7.076e-4 0.875967,0.2269214 1.033382,0.7490063 0.03692,0.1224541 0.04036,0.2961112 0.047,2.3741207 l 0.0072,2.2420028 h 0.844909 0.844909 V 7.4597779 c 0,-2.3418971 -0.0041,-2.4675284 -0.09241,-2.8533801 C 12.506541,3.699178 11.884649,3.0139427 11.070528,2.7952427 10.643415,2.6805058 10.090213,2.6744523 9.6801113,2.7800276 9.0403224,2.9447332 8.6659042,3.2520737 8.2440024,3.9588549 8.1159208,4.1734209 8.0061196,4.3489749 8,4.3489749 c -0.00612,0 -0.1159208,-0.175554 -0.2440024,-0.39012 C 7.4131607,3.3845256 7.1662064,3.1362114 6.7299779,2.9271864 6.4463693,2.7912917 6.158355,2.7251966 5.7841082,2.7101234 5.0187977,2.6792999 4.4280312,2.8914337 3.9473856,3.3696579 3.5526631,3.762392 3.2979683,4.3287913 3.2164026,4.9952438 3.2018463,5.114179 3.1933241,6.0242581 3.1933241,7.4597779 v 2.2759662 h 0.844909 0.844909 z"
     id="path1419" />
</svg>
