<?xml version="1.0" encoding="UTF-8" standalone="no"?>
<!-- Creator: CorelDRAW -->

<svg
   xml:space="preserve"
   width="132.07042mm"
   height="131.45905mm"
   version="1.1"
   style="clip-rule:evenodd;fill-rule:evenodd;image-rendering:optimizeQuality;shape-rendering:geometricPrecision;text-rendering:geometricPrecision"
   viewBox="0 0 13207.042 13145.905"
   id="svg25"
   sodipodi:docname="ouisync-bg.svg"
   inkscape:export-filename="ouisync-bg-purple.svg"
   inkscape:export-xdpi="96"
   inkscape:export-ydpi="96"
   xmlns:inkscape="http://www.inkscape.org/namespaces/inkscape"
   xmlns:sodipodi="http://sodipodi.sourceforge.net/DTD/sodipodi-0.dtd"
   xmlns="http://www.w3.org/2000/svg"
   xmlns:svg="http://www.w3.org/2000/svg"><sodipodi:namedview
   id="namedview27"
   pagecolor="#ffffff"
   bordercolor="#000000"
   borderopacity="0.25"
   inkscape:showpageshadow="2"
   inkscape:pageopacity="0.0"
   inkscape:pagecheckerboard="0"
   inkscape:deskcolor="#d1d1d1"
   inkscape:document-units="mm"
   showgrid="false" />
 <defs
   id="defs4"><style
     type="text/css"
     id="style2">
   <![CDATA[
    .fil1 {fill:#00B0BD}
    .fil7 {fill:#02C8F9}
    .fil4 {fill:#0870D9}
    .fil3 {fill:#6016CE}
    .fil6 {fill:#8640FF}
    .fil2 {fill:#B107DF}
    .fil5 {fill:#FF4AED}
    .fil0 {fill:white}
   ]]>
  </style></defs>
 <g
   id="Layer_x0020_1"
   inkscape:label="Layer 1"
   inkscape:groupmode="layer"
   transform="translate(-3727.2939,-5742.0586)">
  <metadata
   id="CorelCorpID_0Corel-Layer" />
  
  <g
   id="_1893378701888"
   style="fill:#9205d1;fill-opacity:1;stroke:none">
   <path
   class="fil1"
   d="m 8133.59,5962.34 c -53.86,35.75 -108.52,76.1 -164.79,121.46 l -3920.21,4005.58 c -160.44,208.68 -256.23,393.95 -297.54,597.11 l 0.1,0.1 c -33.69,166.71 -30.7,345.85 2.68,559.84 l 1508.48,5396.32 c 56.17,135.8 116.11,250.46 185.07,349.1 121.87,174.23 272.32,298.78 480.48,402.26 l 0.27,0.07 -0.17,-0.04 c 57.88,28.75 120.19,55.89 187.61,81.97 l 5429.04,1392.24 c 260.93,34.59 469.26,24.91 665.89,-40.9 v -0.13 c 161.22,-54.18 314.9,-146.34 483.53,-282.24 l 3919.08,-4004.52 c 89.52,-116.55 158.89,-225.8 209.81,-334.87 89.92,-192.65 122.59,-385.2 108.11,-617.24 l -0.07,-0.24 0.07,0.17 c -4.05,-64.5 -11.7,-132.03 -22.82,-203.46 L 15399.39,7987.13 c -100.5,-243.3 -213.07,-418.9 -368.36,-556.24 l -0.13,0.07 0.03,-0.04 c -127.53,-112.54 -284.19,-199.51 -486.21,-277.6 L 9117.16,5761.56 c -145.68,-19.29 -274.96,-24.71 -394.87,-14.28 -211.84,18.43 -394.91,86.43 -588.63,214.96 z m -806.46,8086.89 -0.07,-0.03 3003.76,-5202.74 0.06,-0.03 3003.79,5202.74 v 0.03 z"
   id="path9"
   style="fill:#9205d1;fill-opacity:1;stroke:none" />
   <path
   class="fil2"
   d="m 8133.61,5962.3 c -53.84,35.77 -108.5,76.14 -164.81,121.49 l -3920.21,4005.58 c -160.43,208.68 -256.22,393.95 -297.53,597.12 l 1696.37,979.39 4883.44,-2819.45 3003.81,5202.74 V 8410.27 L 9350.23,6109.84 c -396.76,-229 -770.12,-325.2 -1216.75,-147.4 z"
   id="path11"
   style="fill:#9205d1;fill-opacity:1;stroke:none" />
   <path
   class="fil3"
   d="m 5927.95,17394.13 c 57.9,28.75 120.19,55.9 187.62,81.99 l 5429.04,1392.22 c 260.93,34.59 469.27,24.92 665.88,-40.89 l -0.01,-1958.8 -4883.43,-2819.47 3003.79,-5202.75 -4883.42,2819.45 -0.01,4600.86 c 0.06,458.11 103.44,829.54 480.73,1127.44 z"
   id="path13"
   style="fill:#9205d1;fill-opacity:1;stroke:none" />
   <path
   class="fil4"
   d="m 16931.01,13588.39 c -4.04,-64.52 -11.68,-132.03 -22.8,-203.47 L 15399.39,7987.11 c -100.51,-243.27 -213.06,-418.86 -368.36,-556.23 l -1696.35,979.41 -0.02,5638.92 -6007.59,0.01 4883.41,2819.45 3984.46,-2300.42 c 396.7,-229.11 666.68,-504.35 736.03,-980.04 z"
   id="path15"
   style="fill:#9205d1;fill-opacity:1;stroke:none" />
   <path
   class="fil5"
   d="m 3751.16,10686.56 1696.25,979.32 -0.01,4600.86 c 0.06,458.11 103.44,829.55 480.72,1127.44 l -0.24,-0.06 c -208.2,-103.5 -358.62,-228.05 -480.49,-402.26 -68.99,-98.64 -128.9,-213.32 -185.08,-349.13 l -1508.47,-5396.3 c -33.4,-213.98 -36.37,-393.16 -2.68,-559.87 z"
   id="path17"
   style="fill:#9205d1;fill-opacity:1;stroke:none" />
   <path
   class="fil6"
   d="m 12210.5,18827.33 -0.01,-1958.66 3984.45,-2300.42 c 396.71,-229.11 666.69,-504.35 736.03,-980.04 l 0.07,0.24 c 14.47,232.05 -18.19,424.6 -108.12,617.25 -50.93,109.07 -120.29,218.29 -209.81,334.84 l -3919.09,4004.54 c -168.61,135.91 -322.31,228.08 -483.52,282.25 z"
   id="path19"
   style="fill:#9205d1;fill-opacity:1;stroke:none" />
   <path
   class="fil7"
   d="M 15030.93,7430.93 13334.69,8410.27 9350.24,6109.84 c -396.77,-229 -770.13,-325.2 -1216.76,-147.4 l 0.18,-0.18 c 193.73,-128.56 376.81,-196.55 588.62,-214.99 119.91,-10.43 249.18,-4.97 394.88,14.28 l 5427.57,1391.77 c 202.01,78.07 358.67,165.08 486.2,277.61 z"
   id="path21"
   style="fill:#9205d1;fill-opacity:1;stroke:none" />
  </g>
 <ellipse
   style="fill:#9205d1;fill-opacity:1;stroke:none;stroke-width:254.106"
   id="path362"
   cx="10055.487"
   cy="12285.472"
   rx="4127.3677"
   ry="4364.8867" /></g>
</svg>
