<?xml version="1.0" encoding="UTF-8" standalone="no"?>
<svg
   width="24"
   height="24"
   viewBox="0 0 24 24"
   fill="none"
   stroke="currentColor"
   stroke-width="2"
   stroke-linecap="round"
   stroke-linejoin="round"
   class="feather feather-twitter"
   version="1.1"
   id="svg1802"
   sodipodi:docname="twitter.svg"
   inkscape:version="1.1.2 (0a00cf5339, 2022-02-04)"
   xmlns:inkscape="http://www.inkscape.org/namespaces/inkscape"
   xmlns:sodipodi="http://sodipodi.sourceforge.net/DTD/sodipodi-0.dtd"
   xmlns="http://www.w3.org/2000/svg"
   xmlns:svg="http://www.w3.org/2000/svg">
  <defs
     id="defs1806" />
  <sodipodi:namedview
     id="namedview1804"
     pagecolor="#ffffff"
     bordercolor="#666666"
     borderopacity="1.0"
     inkscape:pageshadow="2"
     inkscape:pageopacity="0.0"
     inkscape:pagecheckerboard="0"
     showgrid="false"
     inkscape:zoom="29.958333"
     inkscape:cx="1.2684284"
     inkscape:cy="12"
     inkscape:window-width="1920"
     inkscape:window-height="1016"
     inkscape:window-x="1920"
     inkscape:window-y="27"
     inkscape:window-maximized="1"
     inkscape:current-layer="svg1802" />
  <path
     d="M23 3a10.9 10.9 0 0 1-3.14 1.53 4.48 4.48 0 0 0-7.86 3v1A10.66 10.66 0 0 1 3 4s-4 9 5 13a11.64 11.64 0 0 1-7 2c9 5 20 0 20-11.5a4.5 4.5 0 0 0-.08-.83A7.72 7.72 0 0 0 23 3z"
     id="path1800" />
  <path
     style="opacity:0.91;fill:#9205d1;stroke-width:0;stroke-opacity:0.803922"
     d="M 7.1452196,21.876362 C 5.0975356,21.719381 3.1210893,21.158892 1.1356751,20.17215 0.4511058,19.831922 0.26116328,19.692729 0.12443489,19.431099 -0.06984056,19.059353 0.03915972,18.525691 0.36367824,18.259773 0.63115437,18.040596 0.67660753,18.031639 1.6522949,18.005836 2.7642599,17.97643 3.4446506,17.880788 4.3466417,17.627095 4.8903482,17.474173 5.8664228,17.10794 5.9075246,17.041436 5.9161909,17.027414 5.7804831,16.922006 5.605952,16.807197 3.3073435,15.29514 1.8515824,13.188317 1.3386565,10.631433 1.0785913,9.3350337 1.0719098,7.81874 1.3198786,6.3699675 1.4747444,5.4651542 1.8752645,4.0739492 2.1218518,3.5843164 2.4566263,2.9195758 3.3078439,2.8306911 3.7719054,3.4120167 c 0.073435,0.091992 0.2536857,0.3221981 0.4005564,0.5115696 0.1468706,0.1893714 0.4547983,0.5331306 0.6842837,0.7639093 1.5929457,1.6019227 3.6974994,2.5980399 5.9615325,2.8216838 l 0.203534,0.020105 0.02087,-0.426673 c 0.06329,-1.2937512 0.62023,-2.5147195 1.588978,-3.4834671 0.785629,-0.7856294 1.666571,-1.2638123 2.773067,-1.5052446 0.307615,-0.06712 0.440313,-0.076304 1.08484,-0.075081 0.630334,0.0012 0.781136,0.011779 1.06463,0.074709 0.88487,0.1964241 1.674328,0.5678251 2.333812,1.0979445 0.266713,0.2143938 0.2207,0.2166903 0.815568,-0.040705 0.482647,-0.2088378 1.022064,-0.5009677 1.476058,-0.7993826 0.495508,-0.3257026 0.516592,-0.3343059 0.818972,-0.3341796 0.297856,1.245e-4 0.473069,0.067546 0.678919,0.261247 0.322631,0.3035881 0.367812,0.6711878 0.16469,1.3399343 -0.336858,1.1090501 -0.868187,2.1146494 -1.593155,3.0152259 l -0.277606,0.3448506 0.0061,0.5230214 c 0.01523,1.3148492 -0.18237,2.9215038 -0.517762,4.2098548 -0.628955,2.416025 -1.770223,4.467366 -3.433038,6.17062 -2.285087,2.340663 -5.311552,3.714524 -8.7621773,3.977584 -0.5161892,0.03935 -1.5854443,0.03775 -2.1193181,-0.0032 z m 2.7041548,-2.029415 c 2.7062776,-0.363645 4.9838056,-1.479777 6.7928606,-3.328929 1.605372,-1.640954 2.647905,-3.710723 3.116364,-6.187003 0.228966,-1.210313 0.300512,-2.4950651 0.199194,-3.576925 -0.03214,-0.343222 0.03472,-0.4988909 0.381779,-0.8888161 0.427818,-0.4806619 0.506047,-0.574074 0.506047,-0.6042643 0,-0.015042 -0.176495,0.03323 -0.392211,0.107272 C 19.74832,5.6102927 19.515949,5.5581513 18.994494,5.0409175 18.516675,4.5669665 18.051077,4.2887498 17.4242,4.1025922 17.000627,3.9768078 16.238733,3.9517603 15.77146,4.0482578 15.067361,4.1936625 14.549203,4.4773068 14.019562,5.007262 13.606956,5.4201119 13.395809,5.7382177 13.216424,6.2172371 13.029743,6.7157401 12.999666,6.9251279 12.980327,7.8609179 12.959354,8.8757771 12.940976,8.9604571 12.686461,9.2149726 12.42138,9.4800531 12.285597,9.5148167 11.549374,9.5060949 8.6812727,9.4721167 5.9753868,8.3856771 3.8012866,6.3951612 3.346547,5.9788209 3.3931173,5.9677883 3.2898235,6.5163271 3.1602268,7.204547 3.1114864,7.7484397 3.1109994,8.511822 c -8.849e-4,1.3870648 0.2236177,2.432701 0.7618355,3.548304 0.7935649,1.644878 2.177719,2.922704 4.2384307,3.91284 0.5153745,0.247629 0.6637579,0.369907 0.7889118,0.650122 0.053349,0.119445 0.074063,0.228587 0.072857,0.383866 -0.00304,0.390953 -0.1410439,0.607439 -0.5718349,0.89703 -0.8766442,0.589307 -2.0801451,1.165911 -3.0854757,1.47827 -0.1973535,0.06132 -0.3588277,0.120901 -0.3588317,0.132407 -1.4e-5,0.04218 1.0477265,0.253016 1.635598,0.329131 0.9165233,0.118669 2.3866214,0.120093 3.2568848,0.0032 z"
     id="path1940" />
</svg>
