<?xml version="1.0" encoding="UTF-8" standalone="no"?>
<svg
   height="48"
   viewBox="0 -960 960 960"
   width="48"
   version="1.1"
   id="svg510"
   sodipodi:docname="cloud.svg"
   inkscape:version="1.2.2 (b0a8486541, 2022-12-01)"
   xmlns:inkscape="http://www.inkscape.org/namespaces/inkscape"
   xmlns:sodipodi="http://sodipodi.sourceforge.net/DTD/sodipodi-0.dtd"
   xmlns="http://www.w3.org/2000/svg"
   xmlns:svg="http://www.w3.org/2000/svg">
  <defs
     id="defs514" />
  <sodipodi:namedview
     id="namedview512"
     pagecolor="#ffffff"
     bordercolor="#000000"
     borderopacity="0.25"
     inkscape:showpageshadow="2"
     inkscape:pageopacity="0.0"
     inkscape:pagecheckerboard="0"
     inkscape:deskcolor="#d1d1d1"
     showgrid="false"
     inkscape:zoom="4.9166667"
     inkscape:cx="23.898305"
     inkscape:cy="24.101695"
     inkscape:window-width="1504"
     inkscape:window-height="942"
     inkscape:window-x="0"
     inkscape:window-y="0"
     inkscape:window-maximized="1"
     inkscape:current-layer="svg510" />
  <path
     d="M818-56 703-171H248q-88 0-148-59T40-377q0-80 50.5-134T217-577q2-14 6.5-31.5T236-640L70-806l42-42L861-99l-43 43ZM248-231h397L285-591q-11 15-14.5 34t-3.5 37h-19q-62 0-105 39.5t-43 101q0 61.5 43 105T248-231Zm216-181Zm390 210-47-47q25-17 39-38t14-50q0-43-31-73.5T755-441h-67v-81q0-88-61-147.5T478.473-729Q450-729 417.5-720T358-691l-42-42q36-29 77.5-42.5T478-789q111 0 190.5 79T748-520v21q72-1 122 45t50 117q0 35-16.5 73.5T854-202ZM583-470Z"
     id="path508"
     style="fill:#ffffff" />
</svg>
