<?xml version="1.0" encoding="UTF-8" standalone="no"?>
<svg
   width="200"
   height="200"
   viewBox="0 0 200 200"
   fill="none"
   version="1.1"
   id="svg67"
   sodipodi:docname="element.svg"
   inkscape:version="1.1.2 (0a00cf5339, 2022-02-04)"
   xmlns:inkscape="http://www.inkscape.org/namespaces/inkscape"
   xmlns:sodipodi="http://sodipodi.sourceforge.net/DTD/sodipodi-0.dtd"
   xmlns="http://www.w3.org/2000/svg"
   xmlns:svg="http://www.w3.org/2000/svg">
  <defs
     id="defs71" />
  <sodipodi:namedview
     id="namedview69"
     pagecolor="#ffffff"
     bordercolor="#666666"
     borderopacity="1.0"
     inkscape:pageshadow="2"
     inkscape:pageopacity="0.0"
     inkscape:pagecheckerboard="0"
     showgrid="false"
     inkscape:zoom="3.825"
     inkscape:cx="99.869281"
     inkscape:cy="100"
     inkscape:window-width="1920"
     inkscape:window-height="1016"
     inkscape:window-x="1920"
     inkscape:window-y="27"
     inkscape:window-maximized="1"
     inkscape:current-layer="svg67" />
  <path
     fill-rule="evenodd"
     clip-rule="evenodd"
     d="M100 200C155.228 200 200 155.228 200 100C200 44.7715 155.228 0 100 0C44.7715 0 0 44.7715 0 100C0 155.228 44.7715 200 100 200Z"
     fill="#0DBD8B"
     id="path57" />
  <path
     fill-rule="evenodd"
     clip-rule="evenodd"
     d="M81.7169 46.5946C81.7169 42.5581 84.9959 39.2859 89.0408 39.2859C116.456 39.2859 138.681 61.4642 138.681 88.8225C138.681 92.859 135.401 96.1312 131.357 96.1312C127.312 96.1312 124.033 92.859 124.033 88.8225C124.033 69.5372 108.366 53.9033 89.0408 53.9033C84.9959 53.9033 81.7169 50.6311 81.7169 46.5946Z"
     fill="white"
     id="path59" />
  <path
     fill-rule="evenodd"
     clip-rule="evenodd"
     d="M153.39 81.5137C157.435 81.5137 160.714 84.7859 160.714 88.8224C160.714 116.181 138.49 138.359 111.075 138.359C107.03 138.359 103.751 135.087 103.751 131.05C103.751 127.014 107.03 123.742 111.075 123.742C130.4 123.742 146.066 108.108 146.066 88.8224C146.066 84.7859 149.345 81.5137 153.39 81.5137Z"
     fill="white"
     id="path61" />
  <path
     fill-rule="evenodd"
     clip-rule="evenodd"
     d="M118.398 153.405C118.398 157.442 115.119 160.714 111.074 160.714C83.6592 160.714 61.4347 138.536 61.4347 111.177C61.4347 107.141 64.7138 103.869 68.7587 103.869C72.8035 103.869 76.0826 107.141 76.0826 111.177C76.0826 130.463 91.7489 146.097 111.074 146.097C115.119 146.097 118.398 149.369 118.398 153.405Z"
     fill="white"
     id="path63" />
  <path
     fill-rule="evenodd"
     clip-rule="evenodd"
     d="M46.6097 118.486C42.5648 118.486 39.2858 115.214 39.2858 111.178C39.2858 83.8193 61.5102 61.6409 88.9255 61.6409C92.9704 61.6409 96.2494 64.9132 96.2494 68.9497C96.2494 72.9862 92.9704 76.2584 88.9255 76.2584C69.6 76.2584 53.9337 91.8922 53.9337 111.178C53.9337 115.214 50.6546 118.486 46.6097 118.486Z"
     fill="white"
     id="path65" />
  <path
     style="opacity:0.91;fill:#9205d1;stroke-width:0;stroke-opacity:0.803922"
     d="m 93.856209,199.71428 c -0.575163,-0.0568 -2.398693,-0.23047 -4.052287,-0.38604 C 83.36,198.72201 74.964261,196.92313 68.504847,194.76467 42.868821,186.19822 21.638203,167.46444 9.9479333,143.09437 4.9926301,132.76431 1.9122427,121.87105 0.60802264,110.06536 c -0.4528075,-4.09877 -0.4528075,-16.031946 0,-20.130719 C 3.6261537,62.614779 16.621432,38.925984 37.992897,21.786613 52.601817,10.070631 70.559979,2.7484167 89.934641,0.60802264 93.92721,0.16694787 106.21924,0.16315927 110.06536,0.60181793 123.09285,2.0876337 134.64346,5.534462 145.64445,11.219006 c 27.94121,14.438064 47.52037,41.100552 52.76598,71.85558 1.06312,6.233113 1.32813,9.610313 1.32813,16.925414 0,7.3151 -0.26501,10.6923 -1.32813,16.92541 -4.67141,27.3885 -20.94639,51.95287 -44.4235,67.04986 -12.92476,8.31128 -27.02639,13.35981 -42.61438,15.25639 -3.19903,0.38923 -15.131044,0.71798 -17.516341,0.48262 z m 20.349531,-39.56293 c 1.46838,-0.71083 2.88443,-2.13529 3.63308,-3.65465 0.91208,-1.85106 0.8291,-4.65689 -0.19297,-6.52514 -0.94534,-1.72799 -2.43482,-3.03667 -4.02251,-3.53424 -0.66277,-0.20771 -2.47752,-0.44632 -4.03276,-0.53024 -12.034674,-0.64939 -22.588664,-7.02801 -28.645278,-17.31263 -2.899271,-4.92319 -4.736152,-11.52007 -4.736152,-17.00916 0,-4.51922 -3.114225,-7.76447 -7.45098,-7.76447 -2.25468,0 -3.829289,0.64672 -5.323613,2.18652 -2.11513,2.1795 -2.497916,4.5967 -1.740013,10.98773 2.767715,23.3388 21.329736,41.40305 44.847266,43.64461 3.62015,0.34505 6.29439,0.17465 7.66393,-0.48833 z m 2.39557,-21.99288 c 18.41371,-2.10209 33.94839,-13.95948 40.74448,-31.09965 2.12825,-5.36759 3.31846,-11.235583 3.39376,-16.732023 0.0424,-3.09613 0.006,-3.346389 -0.68755,-4.759241 -0.84528,-1.721318 -1.83425,-2.643705 -3.80664,-3.550351 -1.19465,-0.549145 -1.67736,-0.626311 -3.26797,-0.522418 -2.17704,0.142199 -3.5226,0.747519 -4.90937,2.208552 -1.52856,1.610415 -1.83261,2.474543 -2.09458,5.952933 -0.73838,9.804008 -3.68794,16.761328 -9.82219,23.168228 -3.86365,4.03538 -8.39485,6.95332 -13.71092,8.82938 -3.15595,1.11375 -5.79234,1.61456 -9.83787,1.86882 -2.95794,0.1859 -3.68671,0.32156 -4.88996,0.91025 -3.2219,1.57633 -4.82997,5.5093 -3.6747,8.98748 0.61736,1.85869 2.41817,3.79713 4.14387,4.46055 1.5767,0.60614 4.65272,0.70752 8.41964,0.27749 z M 49.934641,117.84324 c 1.241001,-0.64561 2.770946,-2.19606 3.401641,-3.44722 0.295535,-0.58628 0.5352,-1.99325 0.690275,-4.05229 0.457989,-6.08105 1.456172,-9.96113 3.770753,-14.657455 4.059751,-8.237302 11.681976,-14.777059 20.503344,-17.591567 3.279877,-1.046465 4.943814,-1.342742 9.022878,-1.606598 4.750518,-0.307289 6.588191,-1.205365 8.08178,-3.949579 2.121381,-3.897676 0.336487,-8.921454 -3.717024,-10.461961 -1.360283,-0.516967 -1.815802,-0.553744 -5.15234,-0.415974 -20.470821,0.845265 -38.287953,14.291143 -44.809242,33.815739 -1.695051,5.074955 -2.934157,13.166015 -2.514499,16.419085 0.358486,2.7789 1.665085,4.64126 4.131602,5.88897 1.484599,0.751 1.791284,0.81193 3.584296,0.71208 1.301354,-0.0725 2.312481,-0.29216 3.006536,-0.65323 z M 134.39237,95.576076 c 1.54522,-0.682737 2.8655,-1.949517 3.62926,-3.482191 0.6078,-1.219684 0.67118,-1.641299 0.67118,-4.464607 0,-7.073417 -1.92755,-14.769749 -5.38154,-21.487453 -6.87909,-13.379198 -19.8827,-23.185624 -34.472875,-25.997062 -3.494536,-0.673375 -9.007705,-1.152585 -10.603101,-0.921631 -3.976925,0.57571 -6.520881,3.42566 -6.527652,7.312816 -0.0037,2.152554 0.704933,3.93933 2.108936,5.317189 1.580745,1.551313 2.632076,1.917551 6.240423,2.173901 4.138385,0.294005 6.99223,0.815477 10.031699,1.833048 8.70211,2.913344 16.1136,9.363786 20.12577,17.516073 2.23956,4.550521 3.20418,8.257391 3.5775,13.747645 0.17386,2.556907 0.37915,3.788878 0.78418,4.705882 1.65,3.735668 6.04455,5.41286 9.81622,3.74639 z"
     id="path190" />
</svg>
