<?xml version="1.0" encoding="UTF-8" standalone="no"?>
<svg
   width="24"
   height="24"
   viewBox="0 0 24 24"
   fill="none"
   stroke="currentColor"
   stroke-width="2"
   stroke-linecap="round"
   stroke-linejoin="round"
   class="feather feather-globe"
   version="1.1"
   id="svg1814"
   sodipodi:docname="globe.svg"
   inkscape:version="1.1.2 (0a00cf5339, 2022-02-04)"
   xmlns:inkscape="http://www.inkscape.org/namespaces/inkscape"
   xmlns:sodipodi="http://sodipodi.sourceforge.net/DTD/sodipodi-0.dtd"
   xmlns="http://www.w3.org/2000/svg"
   xmlns:svg="http://www.w3.org/2000/svg">
  <defs
     id="defs1818" />
  <sodipodi:namedview
     id="namedview1816"
     pagecolor="#ffffff"
     bordercolor="#666666"
     borderopacity="1.0"
     inkscape:pageshadow="2"
     inkscape:pageopacity="0.0"
     inkscape:pagecheckerboard="0"
     showgrid="false"
     inkscape:zoom="29.958333"
     inkscape:cx="11.98331"
     inkscape:cy="12"
     inkscape:window-width="1920"
     inkscape:window-height="1016"
     inkscape:window-x="1920"
     inkscape:window-y="27"
     inkscape:window-maximized="1"
     inkscape:current-layer="svg1814" />
  <circle
     cx="12"
     cy="12"
     r="10"
     id="circle1808" />
  <line
     x1="2"
     y1="12"
     x2="22"
     y2="12"
     id="line1810" />
  <path
     d="M12 2a15.3 15.3 0 0 1 4 10 15.3 15.3 0 0 1-4 10 15.3 15.3 0 0 1-4-10 15.3 15.3 0 0 1 4-10z"
     id="path1812" />
  <path
     style="opacity:0.91;fill:#9205d1;stroke-width:0;stroke-opacity:0.803922"
     d="M 11.048679,22.943973 C 10.590188,22.904455 9.794149,22.76829 9.3129346,22.647068 6.6699261,21.98127 4.3505027,20.331458 2.8384107,18.041725 -0.03633276,13.688552 0.54475724,7.9472078 4.2347259,4.2457103 7.4384302,1.0319962 12.286242,0.12305851 16.437872,1.957688 c 2.486928,1.0989876 4.500636,3.1138675 5.606151,5.6094135 1.500431,3.3870145 1.180074,7.3243805 -0.848175,10.4245535 -1.865508,2.851425 -4.914221,4.669289 -8.311286,4.955793 -0.467027,0.03939 -1.358138,0.0377 -1.835883,-0.0035 z M 9.709646,20.653686 C 9.4427553,20.255926 8.9665939,19.414713 8.6940788,18.859527 7.878209,17.197383 7.3513178,15.443419 7.1448668,13.702364 7.1154776,13.45452 7.0833957,13.1879 7.0735734,13.109875 L 7.0557146,12.968011 H 5.0549785 3.054242 v 0.114607 c 0,0.06303 0.03717,0.315859 0.0826,0.561835 0.6097874,3.301622 3.0132077,5.992797 6.2365226,6.983205 0.2054283,0.06312 0.3789887,0.115453 0.38569,0.116293 0.0067,8.42e-4 -0.015533,-0.03978 -0.049409,-0.09026 z m 5.094248,-0.0816 c 2.790559,-0.892497 5.038971,-3.222602 5.859113,-6.071999 0.124595,-0.432878 0.282751,-1.225733 0.282751,-1.417467 v -0.114607 h -2.000736 -2.000737 l -0.01786,0.141864 c -0.0098,0.07803 -0.0419,0.344645 -0.07129,0.592489 -0.154658,1.304275 -0.536251,2.778879 -1.050574,4.059778 -0.342255,0.85237 -1.017152,2.140619 -1.514415,2.890725 l -0.06031,0.09098 0.178546,-0.05118 c 0.0982,-0.02815 0.276182,-0.08241 0.395514,-0.120575 z m -2.59279,-0.369024 c 1.133802,-1.539736 1.950235,-3.28472 2.395678,-5.120345 0.139194,-0.573605 0.277487,-1.338499 0.312935,-1.730837 0.01161,-0.128512 0.02814,-0.267455 0.03673,-0.308763 l 0.01562,-0.0751 H 12.00147 9.0308762 l 0.014476,0.09179 c 0.00796,0.05049 0.031339,0.242003 0.05195,0.425591 0.2322219,2.068535 1.0809398,4.340323 2.3007778,6.158554 0.312347,0.46557 0.564459,0.801113 0.60192,0.801113 0.0181,0 0.113093,-0.108902 0.211104,-0.242003 z M 7.0735734,10.890125 C 7.0833957,10.8121 7.1154776,10.54548 7.1448668,10.297636 7.3513178,8.5565815 7.878209,6.8026167 8.6940788,5.1404729 8.9660782,4.5863376 9.4433007,3.7431019 9.7083415,3.3483052 l 0.060288,-0.089803 -0.1277083,0.033375 C 8.5247132,3.5835817 7.2914043,4.216134 6.325452,4.9923492 4.9330081,6.1112826 3.8391994,7.753423 3.3408371,9.4731672 3.2271586,9.8654477 3.092816,10.513799 3.0664666,10.797308 l -0.021811,0.234681 h 2.0055297 2.0055295 z m 7.8810746,0.05007 c -0.008,-0.05049 -0.03134,-0.242003 -0.05195,-0.425591 C 14.702793,8.7339341 13.98995,6.6421672 13.040925,5.0514169 12.776137,4.6075791 12.252204,3.8289305 12.101364,3.6550765 L 12,3.5382476 11.898636,3.6550765 c -0.15084,0.173854 -0.674773,0.9525026 -0.939561,1.3963404 -0.945179,1.584303 -1.6496716,3.6460235 -1.8610766,5.4464971 -0.020478,0.174409 -0.045015,0.365925 -0.054525,0.425591 l -0.017291,0.108484 h 2.9714706 2.971471 z m 5.99111,-0.02281 c 0,-0.191734 -0.158156,-0.9845895 -0.282751,-1.417467 C 19.797425,6.4926509 17.465304,4.1836664 14.40838,3.3073405 l -0.178546,-0.051184 0.06031,0.090976 c 0.533452,0.8046972 1.193543,2.0792222 1.559793,3.011699 0.503359,1.2815586 0.852183,2.6484074 1.005196,3.9388045 0.02939,0.247844 0.06147,0.514464 0.07129,0.592489 l 0.01786,0.141864 h 2.000737 2.000736 z"
     id="path1857" />
</svg>
