<?xml version="1.0" encoding="UTF-8" standalone="no"?>
<svg
   height="48"
   viewBox="0 -960 960 960"
   width="48"
   version="1.1"
   id="svg131"
   sodipodi:docname="person-with-gear.svg"
   inkscape:version="1.2.2 (b0a8486541, 2022-12-01)"
   xmlns:inkscape="http://www.inkscape.org/namespaces/inkscape"
   xmlns:sodipodi="http://sodipodi.sourceforge.net/DTD/sodipodi-0.dtd"
   xmlns="http://www.w3.org/2000/svg"
   xmlns:svg="http://www.w3.org/2000/svg">
  <defs
     id="defs135" />
  <sodipodi:namedview
     id="namedview133"
     pagecolor="#ffffff"
     bordercolor="#000000"
     borderopacity="0.25"
     inkscape:showpageshadow="2"
     inkscape:pageopacity="0.0"
     inkscape:pagecheckerboard="0"
     inkscape:deskcolor="#d1d1d1"
     showgrid="false"
     inkscape:zoom="4.9166667"
     inkscape:cx="23.898305"
     inkscape:cy="24.101695"
     inkscape:window-width="1504"
     inkscape:window-height="942"
     inkscape:window-x="0"
     inkscape:window-y="0"
     inkscape:window-maximized="1"
     inkscape:current-layer="svg131" />
  <path
     d="M400-485q-66 0-108-42t-42-108q0-66 42-108t108-42q66 0 108 42t42 108q0 66-42 108t-108 42ZM80-164v-94q0-35 17.5-63t50.5-43q72-32 133.5-46T400-424h23q-6 14-9 27.5t-5 32.5h-9q-58 0-113.5 12.5T172-310q-16 8-24 22.5t-8 29.5v34h269q5 18 12 32.5t17 27.5H80Zm587 44-10-66q-17-5-34.5-14.5T593-222l-55 12-25-42 47-44q-2-9-2-25t2-25l-47-44 25-42 55 12q12-12 29.5-21.5T657-456l10-66h54l10 66q17 5 34.5 14.5T795-420l55-12 25 42-47 44q2 9 2 25t-2 25l47 44-25 42-55-12q-12 12-29.5 21.5T731-186l-10 66h-54Zm27-121q36 0 58-22t22-58q0-36-22-58t-58-22q-36 0-58 22t-22 58q0 36 22 58t58 22ZM400-545q39 0 64.5-25.5T490-635q0-39-25.5-64.5T400-725q-39 0-64.5 25.5T310-635q0 39 25.5 64.5T400-545Zm0-90Zm9 411Z"
     id="path129"
     style="fill:#ffffff" />
</svg>
