<?xml version="1.0" encoding="UTF-8" standalone="no"?>
<svg
   viewBox="0 0 785.69 678.06799"
   version="1.1"
   id="svg285"
   sodipodi:docname="read-write.svg"
   width="785.69"
   height="678.06799"
   inkscape:version="1.2.2 (b0a8486541, 2022-12-01)"
   inkscape:export-filename="read-write.png"
   inkscape:export-xdpi="200"
   inkscape:export-ydpi="200"
   xmlns:inkscape="http://www.inkscape.org/namespaces/inkscape"
   xmlns:sodipodi="http://sodipodi.sourceforge.net/DTD/sodipodi-0.dtd"
   xmlns="http://www.w3.org/2000/svg"
   xmlns:svg="http://www.w3.org/2000/svg">
  <sodipodi:namedview
     id="namedview287"
     pagecolor="#ffffff"
     bordercolor="#000000"
     borderopacity="0.25"
     inkscape:showpageshadow="2"
     inkscape:pageopacity="0.0"
     inkscape:pagecheckerboard="0"
     inkscape:deskcolor="#d1d1d1"
     showgrid="false"
     inkscape:zoom="0.21851852"
     inkscape:cx="395.84745"
     inkscape:cy="368.38983"
     inkscape:window-width="1504"
     inkscape:window-height="942"
     inkscape:window-x="0"
     inkscape:window-y="0"
     inkscape:window-maximized="1"
     inkscape:current-layer="svg285" />
  <defs
     id="defs4">
    <style
       id="style2">.cls-1{fill:#8640ff;}.cls-2{fill:#ff4aed;}.cls-10,.cls-12,.cls-14,.cls-15,.cls-16,.cls-17,.cls-18,.cls-19,.cls-3,.cls-4,.cls-5,.cls-9{fill:none;}.cls-10,.cls-15,.cls-16,.cls-19,.cls-3,.cls-9{stroke:#fff;}.cls-12,.cls-15,.cls-16,.cls-3{stroke-linecap:square;stroke-linejoin:bevel;}.cls-3{stroke-width:0.78px;}.cls-18,.cls-4,.cls-5{stroke:#3c3c3b;}.cls-10,.cls-11,.cls-14,.cls-17,.cls-18,.cls-19,.cls-4,.cls-5,.cls-9{stroke-miterlimit:10;}.cls-4,.cls-5{stroke-width:1.5px;}.cls-4{stroke-dasharray:5.56;}.cls-5{stroke-dasharray:7;}.cls-6{fill:#3c3c3b;}.cls-11,.cls-7{fill:#fff;}.cls-8{fill:#0870d9;}.cls-9{stroke-width:1.1px;}.cls-10{stroke-width:1.07px;}.cls-11,.cls-12,.cls-17{stroke:#0870d9;}.cls-11{stroke-width:1.42px;}.cls-12{stroke-width:1.42px;}.cls-13{fill:#02c8f9;}.cls-14{stroke:#02c8f9;}.cls-16{stroke-width:1.07px;}.cls-17{stroke-width:4.93px;}.cls-20{fill:#b107df;}</style>
  </defs>
  <g
     id="read_n_write"
     data-name="read n write"
     transform="translate(-137.24,-176.39412)">
    <polygon
       class="cls-1"
       points="462,365.57 434.19,393.21 409.1,367.97 409.36,349.39 427.74,331.11 "
       id="polygon6" />
    <polygon
       class="cls-2"
       points="425.55,358.07 409.1,367.97 409.36,349.39 "
       id="polygon8" />
    <line
       class="cls-3"
       x1="422.22"
       y1="370.85999"
       x2="433.95999"
       y2="359.19"
       id="line10" />
    <line
       class="cls-3"
       x1="427.20999"
       y1="375.88"
       x2="443.87"
       y2="359.32001"
       id="line12" />
    <line
       class="cls-3"
       x1="432.01999"
       y1="380.70999"
       x2="448.67999"
       y2="364.14999"
       id="line14" />
    <ellipse
       class="cls-4"
       cx="542.94"
       cy="536.89001"
       rx="276.85001"
       ry="112.2"
       id="ellipse16" />
    <ellipse
       class="cls-5"
       cx="542.94"
       cy="536.89001"
       rx="348.60001"
       ry="141.28999"
       id="ellipse18" />
    <ellipse
       class="cls-4"
       cx="542.94"
       cy="536.89001"
       rx="167.85001"
       ry="68.029999"
       id="ellipse20" />
    <ellipse
       class="cls-4"
       cx="542.94"
       cy="536.89001"
       rx="83.790001"
       ry="33.959999"
       id="ellipse22" />
    <polygon
       class="cls-6"
       points="512.3,477.28 524.4,469.07 511.24,462.7 "
       id="polygon24" />
    <polygon
       class="cls-6"
       points="354.15,447.5 368.64,449.46 359.7,461.03 "
       id="polygon26" />
    <polygon
       class="cls-6"
       points="836.41,468.67 851,469.53 844.45,456.46 "
       id="polygon28" />
    <polygon
       class="cls-6"
       points="527.74,656.06 515.65,647.85 528.81,641.48 "
       id="polygon30" />
    <rect
       class="cls-1"
       x="653.54999"
       y="559.56"
       width="200.03999"
       height="274.06"
       rx="27.950001"
       transform="rotate(-39.95,753.56924,696.58322)"
       id="rect32" />
    <polygon
       class="cls-1"
       points="609.78,671.64 617.61,648.12 600.34,643.87 600.34,661.06 "
       id="polygon34" />
    <polygon
       class="cls-1"
       points="897.95,746.68 895.23,727.95 906.71,720.58 906.71,736.39 "
       id="polygon36" />
    <rect
       class="cls-6"
       x="653.54999"
       y="543.75"
       width="200.03999"
       height="274.06"
       rx="27.950001"
       transform="rotate(-39.95,753.56825,680.77582)"
       id="rect38" />
    <rect
       class="cls-7"
       x="678.90997"
       y="578.48999"
       width="149.32001"
       height="204.57001"
       rx="20.860001"
       transform="rotate(-39.95,753.56825,680.77582)"
       id="rect40" />
    <circle
       class="cls-7"
       cx="829.47998"
       cy="772.13"
       r="8.3000002"
       id="circle42" />
    <circle
       class="cls-7"
       cx="626.19"
       cy="633.32001"
       r="4.9400001"
       id="circle44" />
    <path
       class="cls-6"
       d="m 468.79,322.55 c 0,0 5.06,-17.94 2.3,-24 a 3.57,3.57 0 0 0 -0.93,-1.36 23.58,23.58 0 0 0 -4.36,-3.08 8.91,8.91 0 0 0 -3.9,-1.16 5.72,5.72 0 0 0 -4.92,2.9 32.45,32.45 0 0 0 -2.3,4 16.22,16.22 0 0 0 -1.57,4.69 l -0.21,22.65 2.28,-0.65 2.18,-0.64 2.56,-0.74 2.19,-0.62 2.5,-0.73 2.15,-0.62 z"
       id="path46" />
    <path
       class="cls-8"
       d="m 457.36,325.84 a 44.92,44.92 0 0 0 -0.08,-17.37 l -2,0.43 a 43.56,43.56 0 0 1 -0.1,17.58 z"
       id="path48" />
    <path
       class="cls-8"
       d="m 462.11,324.48 a 45.19,45.19 0 0 0 -0.19,-16.76 l -2,0.43 a 43.17,43.17 0 0 1 0,17 z"
       id="path50" />
    <path
       class="cls-8"
       d="m 466.76,323.13 a 44.34,44.34 0 0 0 -0.33,-15.75 l -2,0.41 a 43,43 0 0 1 0.17,16 z"
       id="path52" />
    <path
       class="cls-6"
       d="m 459.36,296.62 12,-17.43 11,6.05 c 0,0 -7.78,10.5 -13.38,15.25 -5.6,4.75 -9.62,-3.87 -9.62,-3.87 z"
       id="path54" />
    <path
       class="cls-6"
       d="m 447.24,305.1 c 2.63,-1.23 2.76,-3 5.89,-4.94 3.13,-1.94 5.1,4.09 8.74,1.89 3.64,-2.2 5.58,-6.7 3.56,-8.39 -2.02,-1.69 -10.15,-4.78 -22.31,9.17 0,0 1.48,3.49 4.12,2.27 z"
       id="path56" />
    <path
       class="cls-6"
       d="m 750.14,412.62 c 0,0 7.23,-17.18 13.19,-20.23 a 3.58,3.58 0 0 1 1.57,-0.47 24,24 0 0 1 5.33,0.3 9,9 0 0 1 3.78,1.53 5.74,5.74 0 0 1 2,5.34 32.2,32.2 0 0 1 -0.68,4.54 16.21,16.21 0 0 1 -1.7,4.65 l -14,17.83 -1.37,-1.93 -1.3,-1.86 -1.55,-2.17 -1.32,-1.86 -1.5,-2.12 -1.3,-1.83 z"
       id="path58" />
    <path
       class="cls-8"
       d="m 757,422.32 a 44.88,44.88 0 0 1 10.89,-13.53 l 1.3,1.59 a 43.46,43.46 0 0 0 -10.89,13.8 z"
       id="path60" />
    <path
       class="cls-8"
       d="m 754.15,418.29 a 45.39,45.39 0 0 1 10.6,-13 l 1.3,1.59 a 43.09,43.09 0 0 0 -10.58,13.25 z"
       id="path62" />
    <path
       class="cls-8"
       d="m 751.35,414.34 a 44.34,44.34 0 0 1 10.09,-12.1 l 1.3,1.56 a 42.83,42.83 0 0 0 -10.09,12.37 z"
       id="path64" />
    <path
       class="cls-6"
       d="m 773.68,398.23 1.51,-21.09 -12.36,-2.14 c 0,0 -0.47,13.06 0.95,20.26 1.42,7.2 9.9,2.97 9.9,2.97 z"
       id="path66" />
    <path
       class="cls-6"
       d="m 777.86,412.42 c -1.29,-2.6 -0.27,-4.07 -1.52,-7.53 -1.25,-3.46 -6.54,0 -8,-4 -1.46,-4 -0.18,-8.72 2.45,-8.78 2.63,-0.06 10.91,2.6 11.72,21.09 -0.01,0.02 -3.35,1.8 -4.65,-0.78 z"
       id="path68" />
    <path
       class="cls-1"
       d="m 624.26,230.58 c 0,0 -63.12,-52.64 -105.26,-44.67 -42.14,7.97 -79.45,83.81 -79.45,83.81 l 85.45,42.65 35.59,-66.19 55.81,22.09 z"
       id="path70" />
    <path
       class="cls-1"
       d="m 650.4,230.47 12.3,43.39 67.51,31 -6.29,98.14 72.75,-16.77 c 0,0 15.24,-76.55 -17.67,-110.82 -32.67,-34.02 -71.85,-50.36 -128.6,-44.94 z"
       id="path72" />
    <path
       class="cls-1"
       d="m 578.2,228.13 29.73,153.14 81.54,23.44 c 0,0 20.94,-117.14 8.37,-137.42 C 685.27,247.01 578.2,228.13 578.2,228.13 Z"
       id="path74" />
    <path
       class="cls-7"
       d="m 628.58,243.55 -27,-5.56 c 0,0 34.79,-9.22 55.75,-3.92 20.96,5.3 -28.75,9.48 -28.75,9.48 z"
       id="path76" />
    <line
       class="cls-9"
       x1="692.15997"
       y1="287.20999"
       x2="706.25"
       y2="294.67001"
       id="line78" />
    <line
       class="cls-10"
       x1="555.15002"
       y1="256.20001"
       x2="565.16998"
       y2="236.56"
       id="line80" />
    <circle
       class="cls-7"
       cx="670.15002"
       cy="221.09"
       r="1.74"
       id="circle82" />
    <path
       class="cls-6"
       d="m 654.73,208.25 1,39.06 -40.86,5 c 0,0 3.73,2 6.92,-12.54 2,-8.9 3.55,-18.31 3.61,-25.49 0,-1.09 0,-2.12 -0.09,-3.1 -1.24,-17.87 29.42,-2.93 29.42,-2.93 z"
       id="path84" />
    <path
       class="cls-2"
       d="m 648.86,224.66 c -1.37,3.26 -6.45,0.64 -11.83,4 -5.38,3.36 -1.84,12.25 -10.12,13.4 a 4.75,4.75 0 0 1 -5.13,-2.28 c 2,-8.9 3.55,-18.31 3.61,-25.49 6.22,-2.1 15.91,-5.06 19.64,-4.54 5.69,0.81 5.2,11.65 3.83,14.91 z"
       id="path86" />
    <path
       class="cls-6"
       d="m 615.82,187.55 -1.34,4.21 6.52,1.08 -13,16.26 14.08,2.34 c 0,0 -0.09,9.37 12,11.38 16.44,2.73 41.78,-38.18 -0.79,-45.88 a 15.52,15.52 0 0 0 -17.47,10.61 z"
       id="path88" />
    <ellipse
       class="cls-11"
       cx="632.89001"
       cy="195.33"
       rx="5.3200002"
       ry="5.1900001"
       transform="rotate(-60.35,632.86384,195.33187)"
       id="ellipse90" />
    <ellipse
       class="cls-11"
       cx="616.97998"
       cy="193.00999"
       rx="5.3200002"
       ry="5.1900001"
       transform="rotate(-60.35,616.9632,193.01376)"
       id="ellipse92" />
    <polygon
       class="cls-6"
       points="626.74,190.46 622.12,211.44 608.04,209.1 623.34,189.89 "
       id="polygon94" />
    <line
       class="cls-11"
       x1="627.88"
       y1="193.95"
       x2="620.09998"
       y2="192.66"
       id="line96" />
    <polyline
       class="cls-12"
       points="638.1 194.85 655.31 197.71 655.67 200.28"
       id="polyline98" />
    <ellipse
       class="cls-6"
       cx="654.38"
       cy="203.31"
       rx="5.9000001"
       ry="4.9499998"
       transform="rotate(-4.18,654.26136,203.32466)"
       id="ellipse100" />
    <path
       class="cls-2"
       d="m 623.64,178.36 c 0,0 -8.2,-3.31 -9.5,-1.34 -1.3,1.97 1.11,3.51 2.3,3.42 1.19,-0.09 -3.73,0.44 -4,2.42 -0.27,1.98 11.53,-0.15 11.53,-0.15 0,0 -3.87,2.16 -3,3.2 0.87,1.04 7.51,-3.53 7.51,-3.53 z"
       id="path102" />
    <path
       class="cls-7"
       d="m 605,250.81 15.48,-7.7 c 0,0 12.1,5.7 42,-6.73 l 7.28,11.45 c 0,0 -28.65,21.97 -64.76,2.98 z"
       id="path104" />
    <polygon
       class="cls-6"
       points="522.3,251.15 660.26,290.81 664.49,404.81 526.53,365.15 "
       id="polygon106" />
    <polygon
       class="cls-6"
       points="577.81,363.61 715.78,403.27 721.66,421.24 607.66,388.47 "
       id="polygon108" />
    <polygon
       class="cls-13"
       points="672.31,390.78 663.88,388.36 660.26,290.81 670.69,293.83 "
       id="polygon110" />
    <line
       class="cls-14"
       x1="525.94"
       y1="355.07999"
       x2="654.35999"
       y2="387.12"
       id="line112" />
    <line
       class="cls-15"
       x1="523.02002"
       y1="270.64001"
       x2="526.53003"
       y2="365.14999"
       id="line114" />
    <line
       class="cls-16"
       x1="660.26001"
       y1="290.81"
       x2="532.22998"
       y2="254.00999"
       id="line116" />
    <polyline
       class="cls-16"
       points="662.24 365.83 663.88 388.36 685.84 394.67"
       id="polyline118" />
    <path
       class="cls-13"
       d="m 377.68,330.25 c 0,0 -9.39,16.1 -8.25,22.7 a 3.55,3.55 0 0 0 0.56,1.54 24,24 0 0 0 3.44,4.08 9,9 0 0 0 3.49,2.1 5.74,5.74 0 0 0 5.49,-1.58 32.28,32.28 0 0 0 3.22,-3.27 16.32,16.32 0 0 0 2.7,-4.16 l 5.88,-21.87 -2.37,0.06 -2.27,0.08 -2.67,0.07 -2.28,0.05 -2.6,0.08 -2.23,0.06 z"
       id="path120" />
    <path
       class="cls-8"
       d="m 389.57,329.93 a 44.8,44.8 0 0 0 -4.28,16.83 l 2,0.08 a 43.67,43.67 0 0 1 4.51,-17 z"
       id="path122" />
    <path
       class="cls-8"
       d="m 384.62,330.05 a 45.47,45.47 0 0 0 -4,16.27 l 2.05,0.08 A 43,43 0 0 1 386.9,330 Z"
       id="path124" />
    <path
       class="cls-8"
       d="m 379.79,330.19 a 44.19,44.19 0 0 0 -3.63,15.33 l 2,0.11 a 43,43 0 0 1 3.83,-15.5 z"
       id="path126" />
    <path
       class="cls-13"
       d="m 380.31,357.71 -16,13.88 -9.08,-8.59 c 0,0 10.16,-8.21 16.77,-11.4 6.61,-3.19 8.31,6.11 8.31,6.11 z"
       id="path128" />
    <path
       class="cls-13"
       d="m 394.17,352.54 c -2.86,0.53 -3.42,2.23 -6.94,3.3 -3.52,1.07 -3.91,-5.24 -8,-4 -4.09,1.24 -7.08,5.1 -5.55,7.24 1.53,2.14 8.63,7.17 23.9,-3.29 0.01,-0.02 -0.58,-3.79 -3.41,-3.25 z"
       id="path130" />
    <path
       class="cls-13"
       d="m 562.55,715.54 c 0,0 -18.64,0.09 -23.79,-4.2 a 3.75,3.75 0 0 1 -1,-1.26 23.69,23.69 0 0 1 -1.81,-5 9,9 0 0 1 -0.07,-4.08 5.72,5.72 0 0 1 4.11,-4 33,33 0 0 1 4.44,-1.15 16.1,16.1 0 0 1 5,-0.26 l 21.88,5.85 -1.24,2 -1.2,1.94 -1.39,2.27 -1.19,2 -1.36,2.21 -1.18,1.9 z"
       id="path132" />
    <path
       class="cls-8"
       d="m 568.77,705.41 a 45.12,45.12 0 0 1 -16.72,-4.72 l 1,-1.81 a 43.4,43.4 0 0 0 17,4.59 z"
       id="path134" />
    <path
       class="cls-8"
       d="m 566.19,709.63 a 45.31,45.31 0 0 1 -16.1,-4.67 l 1,-1.81 a 43.16,43.16 0 0 0 16.33,4.53 z"
       id="path136" />
    <path
       class="cls-8"
       d="m 563.65,713.74 a 44.3,44.3 0 0 1 -15.09,-4.52 l 0.93,-1.81 a 42.83,42.83 0 0 0 15.34,4.43 z"
       id="path138" />
    <path
       class="cls-13"
       d="m 540.08,699.53 -20,6.88 2.9,12.21 c 0,0 12.2,-4.7 18.27,-8.82 6.07,-4.12 -1.17,-10.27 -1.17,-10.27 z"
       id="path140" />
    <path
       class="cls-13"
       d="m 551.49,690.11 c -1.89,2.22 -3.64,1.86 -6.33,4.36 -2.69,2.5 2.58,6 -0.52,8.93 -3.1,2.93 -7.95,3.59 -9,1.19 -1.05,-2.4 -1.89,-11.06 14.81,-19.05 -0.04,0 2.92,2.36 1.04,4.57 z"
       id="path142" />
    <path
       class="cls-17"
       d="m 318.43,709.85 a 97.64,97.64 0 0 0 42.09,0.59"
       id="path144" />
    <path
       class="cls-17"
       d="m 319.93,719.66 a 97.48,97.48 0 0 0 42.09,0.58"
       id="path146" />
    <path
       class="cls-17"
       d="m 320.6,729.21 a 97.48,97.48 0 0 0 42.09,0.58"
       id="path148" />
    <rect
       class="cls-6"
       x="196.42"
       y="565.72998"
       width="138.06"
       height="222.74001"
       transform="rotate(138.11,265.4306,677.12089)"
       id="rect150" />
    <rect
       class="cls-7"
       x="203.32001"
       y="584.94"
       width="111.5"
       height="168.12"
       transform="rotate(138.11,259.05262,669.02736)"
       id="rect152" />
    <circle
       class="cls-7"
       cx="327.56"
       cy="745.37"
       r="13.94"
       id="circle154" />
    <circle
       class="cls-7"
       cx="160.89999"
       cy="632.42999"
       r="4.6399999"
       id="circle156" />
    <polygon
       class="cls-1"
       points="285.78,826.02 288.42,806.1 139.71,640.28 137.24,666.33 "
       id="polygon158" />
    <polygon
       class="cls-13"
       points="285.78,826.02 392.05,720.9 391.2,713.92 288.42,806.1 "
       id="polygon160" />
    <ellipse
       class="cls-13"
       cx="261.98001"
       cy="684.12"
       rx="32.389999"
       ry="69.699997"
       transform="rotate(-52.31,261.99934,684.13389)"
       id="ellipse162" />
    <path
       class="cls-13"
       d="m 341.81,533 c 0,0 -18.47,-34 10.73,-39.92 29.2,-5.92 28.73,13.92 28.73,13.92 l -3.11,2.52 7.37,13.78 -6.86,1.1 -0.42,17.46 c 0,0 -27.47,12.98 -36.44,-8.86 z"
       id="path164" />
    <path
       class="cls-13"
       d="m 314.06,558 26.31,-38.69 29,11.11 c 0,0 -18.28,37.28 -14.08,48.93 C 359.49,591 314.06,558 314.06,558 Z"
       id="path166" />
    <path
       class="cls-6"
       d="m 273,558.22 c 0,0 -60,-77.81 -47.41,-119.28 12.59,-41.47 52.33,-93.44 120.57,-87.83 0,0 34.44,5.89 25.49,30.6 -8.95,24.71 -48.4,54.79 -72.52,63.52 0,0 32.2,85.53 18,109.54 -14.2,24.01 -44.13,3.45 -44.13,3.45 z"
       id="path168" />
    <path
       class="cls-6"
       d="m 274.71,540.67 c 0,0 -54.53,55.05 -27,149.94 a 44.89,44.89 0 0 0 18.19,24.95 c 11.4,7.55 28.38,15.14 44.72,8.63 28.22,-11.25 54.41,-65.15 63,-85.77 8.59,-20.62 -0.93,-122.06 -98.91,-97.75 z"
       id="path170" />
    <path
       class="cls-6"
       d="m 329.61,569.65 c 0,0 73.37,-6.31 104.73,45.53 31.36,51.84 81.45,40.9 91.73,64.14 10.28,23.24 -3.88,77.09 -25.51,72.13 C 478.93,746.49 366.66,682.92 349.42,635.79 332.18,588.66 302,575 329.61,569.65 Z"
       id="path172" />
    <path
       class="cls-2"
       d="m 333.38,522 23.81,7.55 c 0,0 2.58,-13.28 4.88,-16.88 2.3,-3.6 5.33,7.56 5.33,7.56 l 4.14,-1.72 -3.68,-14.43 11.63,-7.3 c 0,0 -3.39,-13.94 -20.22,-11.69 -25.59,3.46 -32.63,25.91 -25.89,36.91 z"
       id="path174" />
    <path
       class="cls-18"
       d="m 370.36,511.91 q 6.19,1.62 9.13,-3.24"
       id="path176" />
    <path
       class="cls-19"
       d="m 247.39,589.8 c 7.44,-20.95 15.82,-39 27.92,-45.34"
       id="path178" />
    <path
       class="cls-19"
       d="m 372.34,668.2 c -9.8,-10.2 -18,-20.17 -21.74,-29.48"
       id="path180" />
    <path
       class="cls-19"
       d="m 248.58,693.44 v 0 c 13.25,15.66 33.16,26.39 61.32,31"
       id="path182" />
    <path
       class="cls-19"
       d="m 317.31,546.55 c 15.88,2.37 29.2,10.47 39.7,24.89"
       id="path184" />
    <path
       class="cls-15"
       d="m 408.43,661.59 c 12.77,9.72 5.5,19.27 18.28,29 12.78,9.73 20,0.17 32.81,9.9 12.81,9.73 5.51,19.27 18.29,29"
       id="path186" />
    <path
       class="cls-15"
       d="m 251.84,454.84 c 9.72,-12.78 19.27,-5.51 29,-18.28 9.73,-12.77 0.18,-20 9.9,-32.82 9.72,-12.82 19.27,-5.51 29,-18.28"
       id="path188" />
    <path
       class="cls-13"
       d="m 590.64,757.8 c 0,0 16.81,-8 19.57,-14.14 a 3.53,3.53 0 0 0 0.4,-1.59 24.46,24.46 0 0 0 -0.55,-5.31 9,9 0 0 0 -1.71,-3.69 5.74,5.74 0 0 0 -5.43,-1.78 31.23,31.23 0 0 0 -4.5,0.9 16,16 0 0 0 -4.57,1.92 l -17.15,14.79 2,1.28 1.92,1.22 2.24,1.43 1.92,1.24 2.19,1.4 1.89,1.2 z"
       id="path190" />
    <path
       class="cls-8"
       d="m 580.62,751.4 a 45.18,45.18 0 0 0 13,-11.53 L 592,738.65 a 43.56,43.56 0 0 1 -13.27,11.53 z"
       id="path192" />
    <path
       class="cls-8"
       d="m 584.78,754.07 a 45.38,45.38 0 0 0 12.46,-11.21 l -1.65,-1.22 a 43,43 0 0 1 -12.73,11.19 z"
       id="path194" />
    <path
       class="cls-8"
       d="M 588.86,756.67 A 44.27,44.27 0 0 0 600.47,746 l -1.62,-1.23 A 43,43 0 0 1 587,755.47 Z"
       id="path196" />
    <path
       class="cls-13"
       d="m 603.89,733.61 21,-2.52 2.71,12.25 c 0,0 -13,1.09 -20.28,0 -7.28,-1.09 -3.43,-9.73 -3.43,-9.73 z"
       id="path198" />
    <path
       class="cls-13"
       d="m 589.51,730.1 c 2.66,1.17 4.09,0.08 7.6,1.16 3.51,1.08 0.3,6.54 4.35,7.82 4.05,1.28 8.72,-0.23 8.66,-2.87 -0.06,-2.64 -3.11,-10.78 -21.63,-10.7 0,0 -1.63,3.42 1.02,4.59 z"
       id="path200" />
    <path
       class="cls-13"
       d="m 744.79,451.9 c 0,0 15.52,10.33 22.17,9.58 a 3.66,3.66 0 0 0 1.57,-0.47 23.63,23.63 0 0 0 4.28,-3.2 9,9 0 0 0 2.3,-3.36 5.72,5.72 0 0 0 -1.25,-5.57 30.55,30.55 0 0 0 -3.08,-3.41 16,16 0 0 0 -4,-2.94 l -21.49,-7.16 -0.08,2.37 -0.06,2.27 -0.08,2.66 -0.07,2.33 -0.09,2.6 -0.07,2.24 z"
       id="path202" />
    <path
       class="cls-8"
       d="m 745.17,440 a 45,45 0 0 0 16.56,5.27 l 0.2,-2 a 43.77,43.77 0 0 1 -16.7,-5.5 z"
       id="path204" />
    <path
       class="cls-8"
       d="m 745,445 a 45.14,45.14 0 0 0 16,5 l 0.2,-2 a 43,43 0 0 1 -16.12,-5.21 z"
       id="path206" />
    <path
       class="cls-8"
       d="m 744.85,449.79 a 44.28,44.28 0 0 0 15.09,4.52 l 0.23,-2 a 42.89,42.89 0 0 1 -15.25,-4.74 z"
       id="path208" />
    <path
       class="cls-13"
       d="m 772.36,450.89 12.91,16.75 -9.14,8.6 c 0,0 -7.6,-10.63 -10.39,-17.42 -2.79,-6.79 6.62,-7.93 6.62,-7.93 z"
       id="path210" />
    <path
       class="cls-13"
       d="m 768,436.75 c 0.35,2.89 2,3.55 2.89,7.12 0.89,3.57 -5.47,3.6 -4.49,7.74 0.98,4.14 4.66,7.38 6.89,6 2.23,-1.38 7.67,-8.19 -1.87,-24.05 0.02,-0.03 -3.76,0.31 -3.42,3.19 z"
       id="path212" />
    <ellipse
       class="cls-8"
       cx="737.21997"
       cy="711.25"
       rx="35.150002"
       ry="73.230003"
       transform="rotate(-49.03,737.26456,711.27047)"
       id="ellipse214" />
    <path
       class="cls-2"
       d="m 819.78,686.36 c 0,0 35.8,-90.69 12.12,-117.8 0,0 8.55,-145.65 -53.4,-106.56 l -27.22,26.88 c 0,0 35.28,60.75 42.71,70.5 7.43,9.75 -31.75,97.62 25.79,126.98 z"
       id="path216" />
    <path
       class="cls-2"
       d="m 750.11,738.9 c 0,0 -51,-3.52 -46.13,-40.58 4.87,-37.06 47,-88 85,-75.85 38,12.15 82.88,75.8 -38.87,116.43 z"
       id="path218" />
    <path
       class="cls-2"
       d="m 824.42,663.44 c 0,0 -53.42,81.56 -89.25,77.84 0,0 -101.92,81.3 -116.28,28.4 a 37.87,37.87 0 0 1 -0.66,-16.07 l 5.35,-32.25 c 0,0 70,-6.21 82.23,-5.75 12.23,0.46 61.41,-82.23 118.61,-52.17 z"
       id="path220" />
    <path
       class="cls-13"
       d="m 797.35,609.13 c 0,0 32.35,-8.41 20.64,-35.81 -7,-16.43 -30.15,-10.48 -30.15,-10.48 l 0.41,4 -11.2,3.4 0.32,6.76 -4.18,9.28 c 0,0 2.38,31.93 24.16,22.85 z"
       id="path222" />
    <path
       class="cls-13"
       d="m 799.32,646.4 8.76,-46 -28.37,-12.66 c 0,0 -19.28,33.4 -24.64,44.55 -3.79,7.92 44.25,14.11 44.25,14.11 z"
       id="path224" />
    <path
       class="cls-18"
       d="m 789,570 q -2.35,7.53 4.73,11.49"
       id="path226" />
    <path
       class="cls-8"
       d="m 800.5,550.38 c 0,0 -10.08,5.11 -6.76,12.13 3.32,7.02 9.57,12.49 10.59,16.49 1.02,4 -8.17,5.87 -6.89,9.95 1.28,4.08 6.69,8.17 1.3,13.15 -5.39,4.98 -10.55,10.6 -3.82,17.24 6.73,6.64 24.35,34.5 43,27.08 18.65,-7.42 30.9,-16.55 21.7,-27.59 C 850,607.32 800.5,550.38 800.5,550.38 Z"
       id="path228" />
    <path
       class="cls-18"
       d="m 699.58,715.69 9.34,-1.15 c 4,-3 25.66,-24.53 32.25,-30.12"
       id="path230" />
    <path
       class="cls-18"
       d="m 767.84,665.29 c 11.36,-10.75 24,-11.44 37.69,-4.48"
       id="path232" />
    <polygon
       class="cls-7"
       points="747.65,647.64 750.21,632.32 806.55,647.64 "
       id="polygon234" />
    <polygon
       class="cls-2"
       points="613.38,746.49 628.95,749.66 625.74,729.15 614.8,730.52 "
       id="polygon236" />
    <path
       class="cls-2"
       d="m 769.36,474.76 c 0,-0.85 -1.72,-7.83 -1.72,-7.83 l 11.5,-10.72 6.13,6.55 z"
       id="path238" />
    <path
       class="cls-18"
       d="m 622.77,725.12 c 0,0 -6.5,30.84 -5,37.42"
       id="path240" />
    <line
       class="cls-18"
       x1="751.28003"
       y1="488.88"
       x2="774.02002"
       y2="466.42001"
       id="line242" />
    <polygon
       class="cls-2"
       points="662.1,491.6 637.39,462.1 664.17,439.68 682.31,441.47 698.65,460.98 "
       id="polygon244" />
    <polygon
       class="cls-20"
       points="672.47,456.59 664.17,439.67 682.31,441.47 "
       id="polygon246" />
    <path
       class="cls-15"
       d="m 664.66,466.51 c 0,0 13.82,1.58 13.86,-1.32 0.09,-7.13 -18.45,2.72 -17.33,10.57 1.12,7.85 6.35,-3.58 -0.08,-10.15 -6.43,-6.57 -12.51,-6.57 -9.29,-3.09 3.22,3.48 12.84,3.99 12.84,3.99 z"
       id="path248" />
    <polygon
       class="cls-13"
       points="888.27,549.39 849.13,521.42 874.52,485.89 897.05,482.39 922.93,500.89 "
       id="polygon250" />
    <polygon
       class="cls-1"
       points="889.86,503.76 874.52,485.89 897.04,482.39 "
       id="polygon252" />
    <rect
       class="cls-15"
       x="862.65002"
       y="507.82001"
       width="37.439999"
       height="19.709999"
       transform="rotate(35.55,881.42487,517.73826)"
       id="rect254" />
    <line
       class="cls-15"
       x1="867.82001"
       y1="504.44"
       x2="898.28003"
       y2="526.21002"
       id="line256" />
    <line
       class="cls-15"
       x1="894.57001"
       y1="531.39001"
       x2="864.12"
       y2="509.63"
       id="line258" />
    <line
       class="cls-15"
       x1="880.72998"
       y1="505.10999"
       x2="869.27002"
       y2="521.14001"
       id="line260" />
    <line
       class="cls-15"
       x1="893.09003"
       y1="513.94"
       x2="881.63"
       y2="529.97998"
       id="line262" />
    <polygon
       class="cls-1"
       points="497.38,589.06 470.63,616.64 445.59,592.36 445.5,574.15 463.2,555.91 "
       id="polygon264" />
    <polygon
       class="cls-2"
       points="461.53,582.37 445.59,592.36 445.5,574.15 "
       id="polygon266" />
    <polygon
       class="cls-7"
       points="476.42,590.16 476.05,583.14 487,585.05 468.47,604.16 464.42,587.74 "
       id="polygon268" />
    <circle
       class="cls-7"
       cx="460.44"
       cy="594.67999"
       r="1.98"
       id="circle270" />
    <polygon
       class="cls-2"
       points="427.88,476.61 427.08,486.78 435.48,492.56 444.7,488.18 445.5,478 437.1,472.22 "
       id="polygon272" />
    <polygon
       class="cls-13"
       points="620.47,565.24 647.36,541.12 613.03,529.89 "
       id="polygon274" />
    <polygon
       class="cls-20"
       points="575.93,637.98 543.29,616.81 562.51,587.18 580.58,583.53 602.16,597.53 "
       id="polygon276" />
    <polygon
       class="cls-2"
       points="575.55,601.06 562.51,587.18 580.58,583.53 "
       id="polygon278" />
    <path
       class="cls-7"
       d="m 563,607 3.78,1.56 c -1,1.48 -2.1,3 -3.16,4.45 -0.16,0.23 -0.34,0.45 -0.55,0.71 a 4.77,4.77 0 0 0 -3.94,-1.68 3,3 0 0 0 -2.87,4.19 4.43,4.43 0 0 0 3.6,2.67 3.71,3.71 0 0 0 3.89,-1.74 c 1.74,-2.51 3.53,-5 5.28,-7.48 l 0.1,-0.14 7.31,3 -3.57,5 a 17.51,17.51 0 0 0 -3.16,-1.33 c -2.64,-0.55 -4.7,1.53 -3.9,3.89 a 4.29,4.29 0 0 0 3.52,2.87 3.68,3.68 0 0 0 3.87,-1.45 c 0.21,-0.27 0.41,-0.56 0.61,-0.84 1.69,-2.39 3.39,-4.78 5.07,-7.17 l 3.85,1.59 4.08,-3.18 -19.72,-8.17 z"
       id="path280" />
    <path
       class="cls-18"
       d="m 735.17,741.28 c 11.06,0.44 21,-3.84 30.23,-11.45"
       id="path282" />
  </g>
</svg>
